<svg width="24" height="24" viewBox="0 0 24 24" fill="none" xmlns="http://www.w3.org/2000/svg">
<path d="M19.3684 6.52621H4.63159C4.2829 6.52621 4 6.80889 4 7.15778C4 7.50667 4.2829 7.78935 4.63159 7.78935H5.89474V18.1052C5.89474 19.1895 7.00617 19.9999 8.00001 19.9999H16C16.9918 19.9999 17.6842 19.2208 17.6842 18.1052V7.78937H19.3684C19.7171 7.78937 20 7.50669 20 7.1578C20 6.80891 19.7171 6.52621 19.3684 6.52621ZM16.4211 18.1052C16.4211 18.3935 16.3479 18.7368 16 18.7368H8.00001C7.60651 18.7368 7.15789 18.4005 7.15789 18.1052V7.78937H16.4211V18.1052Z" fill="#242424"/>
<path d="M10.1042 5.26315H13.8937C14.2424 5.26315 14.5253 4.98047 14.5253 4.63159C14.5253 4.2827 14.2424 4 13.8937 4H10.1042C9.75556 4 9.47266 4.28268 9.47266 4.63157C9.47266 4.98046 9.75556 5.26315 10.1042 5.26315Z" fill="#242424"/>
<path d="M9.8933 17.6843C10.242 17.6843 10.5249 17.4014 10.5249 17.0527V9.47364C10.5249 9.12475 10.242 8.84207 9.8933 8.84207C9.54462 8.84207 9.26172 9.12475 9.26172 9.47364V17.0527C9.26172 17.4014 9.54462 17.6843 9.8933 17.6843Z" fill="#242424"/>
<path d="M13.6824 17.6843C14.0311 17.6843 14.314 17.4014 14.314 17.0527V9.47364C14.314 9.12475 14.0311 8.84207 13.6824 8.84207C13.3337 8.84207 13.0508 9.12475 13.0508 9.47364V17.0527C13.0508 17.4014 13.3337 17.6843 13.6824 17.6843Z" fill="#242424"/>
</svg>
