<svg width="20" height="20" viewBox="0 0 20 20" fill="none" xmlns="http://www.w3.org/2000/svg">
<path d="M10.3832 3.30821C10.1627 3.1287 9.84644 3.12864 9.62584 3.30807L2.92489 8.75848C2.50451 9.10041 2.74629 9.78083 3.28817 9.78083V9.78083C3.60613 9.78083 3.86389 10.0386 3.86389 10.3566V16.4C3.86389 16.7314 4.13252 17 4.46389 17H7.1495C7.48087 17 7.74949 16.7314 7.74949 16.4V14.3464C7.74949 14.015 8.01812 13.7464 8.34949 13.7464H11.6531C11.9845 13.7464 12.2531 14.015 12.2531 14.3464V16.4C12.2531 16.7314 12.5217 17 12.8531 17H15.5453C15.8767 17 16.1453 16.7314 16.1453 16.4V10.3551C16.1453 10.0379 16.4024 9.78083 16.7195 9.78083V9.78083C17.2599 9.78083 17.5012 9.10237 17.0821 8.76122L10.3832 3.30821Z" stroke="#333333"/>
<rect x="7.33203" y="9" width="5.33333" height="1" rx="0.5" fill="#333333"/>
</svg>
