<svg width="20" height="20" viewBox="0 0 20 20" fill="none" xmlns="http://www.w3.org/2000/svg">
<circle cx="10" cy="10" r="8.3" stroke="#242424" stroke-width="1.4"/>
<path d="M9.74019 4.45C9.85566 4.25 10.1443 4.25 10.2598 4.45L11.4722 6.55C11.5877 6.75 11.4434 7 11.2124 7H8.78756C8.55662 7 8.41229 6.75 8.52776 6.55L9.74019 4.45Z" fill="#242424"/>
<path d="M10.2598 15.55C10.1443 15.75 9.85566 15.75 9.74019 15.55L8.52776 13.45C8.41229 13.25 8.55662 13 8.78756 13L11.2124 13C11.4434 13 11.5877 13.25 11.4722 13.45L10.2598 15.55Z" fill="#242424"/>
<path d="M15.55 9.74019C15.75 9.85566 15.75 10.1443 15.55 10.2598L13.45 11.4722C13.25 11.5877 13 11.4434 13 11.2124L13 8.78756C13 8.55662 13.25 8.41229 13.45 8.52776L15.55 9.74019Z" fill="#242424"/>
<path d="M4.45 10.2598C4.25 10.1443 4.25 9.85566 4.45 9.74019L6.55 8.52776C6.75 8.41229 7 8.55662 7 8.78756L7 11.2124C7 11.4434 6.75 11.5877 6.55 11.4722L4.45 10.2598Z" fill="#242424"/>
</svg>
