<svg width="24" height="24" viewBox="0 0 24 24" fill="none" xmlns="http://www.w3.org/2000/svg">
<path d="M12.6 6C12.6 5.66863 12.3314 5.4 12 5.4C11.6686 5.4 11.4 5.66863 11.4 6L12.6 6ZM12 6L11.4 6L11.4 14.4L12 14.4L12.6 14.4L12.6 6L12 6Z" fill="#242424"/>
<path d="M8.25 8.25H7.05C6.05589 8.25 5.25 9.05589 5.25 10.05V15.45C5.25 16.4441 6.05589 17.25 7.05 17.25H16.95C17.9441 17.25 18.75 16.4441 18.75 15.45V10.05C18.75 9.05589 17.9441 8.25 16.95 8.25H15.75" stroke="#242424" stroke-width="1.2" stroke-linecap="round"/>
<path d="M9 12L12 15L15 12" stroke="#242424" stroke-width="1.2" stroke-linecap="round" stroke-linejoin="round"/>
</svg>
