<svg width="20" height="20" viewBox="0 0 20 20" fill="none" xmlns="http://www.w3.org/2000/svg">
<path d="M3.75 16.25H16.25" stroke="#787878" stroke-width="1.4" stroke-miterlimit="10" stroke-linecap="round"/>
<path d="M9.3996 13.1857L6.33056 14.1521C6.22811 14.1844 6.14529 14.1779 6.09235 14.1335C6.0394 14.0891 6.01866 14.0086 6.03268 13.9021L6.45147 10.7119C6.46259 10.6221 6.49848 10.5165 6.55587 10.4046C6.61325 10.2926 6.69031 10.178 6.78003 10.071L11.5424 4.39544C11.686 4.22426 11.8523 4.08403 12.0047 4.0056C12.157 3.92717 12.283 3.91696 12.3548 3.97723L15.005 6.20105C15.0769 6.26132 15.0887 6.38712 15.0379 6.55077C14.9871 6.71443 14.8779 6.90254 14.7342 7.07372L9.97188 12.7493C9.88255 12.8558 9.78355 12.9514 9.6837 13.0275C9.58385 13.1036 9.48625 13.158 9.3996 13.1857Z" stroke="#787878" stroke-width="1.4" stroke-miterlimit="10" stroke-linecap="round"/>
</svg>
