<svg width="18" height="18" viewBox="0 0 18 18" fill="none" xmlns="http://www.w3.org/2000/svg">
<path d="M3.375 14.625H14.625" stroke="#8F8F8F" stroke-width="1.2" stroke-miterlimit="10" stroke-linecap="round"/>
<path d="M8.45905 11.8671L5.69692 12.7369C5.60471 12.7659 5.53018 12.7601 5.48253 12.7201C5.43488 12.6801 5.41621 12.6078 5.42883 12.5119L5.80574 9.6407C5.81575 9.55993 5.84805 9.46485 5.89969 9.36411C5.95134 9.26337 6.02069 9.16017 6.10144 9.06391L10.3876 3.9559C10.5168 3.80183 10.6665 3.67563 10.8036 3.60504C10.9407 3.53445 11.0541 3.52527 11.1187 3.57951L13.5039 5.58095C13.5686 5.63519 13.5792 5.74841 13.5335 5.8957C13.4878 6.04299 13.3895 6.21229 13.2602 6.36635L8.97411 11.4744C8.89371 11.5702 8.80461 11.6562 8.71474 11.7247C8.62488 11.7933 8.53704 11.8422 8.45905 11.8671Z" stroke="#8F8F8F" stroke-width="1.2" stroke-miterlimit="10" stroke-linecap="round"/>
</svg>
