<svg width="20" height="20" viewBox="0 0 20 20" fill="none" xmlns="http://www.w3.org/2000/svg">
<path d="M17.7494 9.51397C17.3443 8.7699 16.8268 8.08558 16.2131 7.48255C15.4198 6.71095 14.4736 6.09465 13.4284 5.66883C12.3832 5.24301 11.2595 5.01602 10.1215 5.00082C8.98353 4.98561 7.85352 5.1825 6.79601 5.58022C5.7385 5.97795 4.7742 6.56872 3.95818 7.31882C3.89991 7.37236 3.84246 7.42668 3.78666 7.48177C3.17298 8.0848 2.65546 8.76912 2.25038 9.51319C2.0858 9.81865 2 10.1566 2 10.4994C2 10.8422 2.0858 11.1802 2.25038 11.4856C2.65546 12.2297 3.17298 12.914 3.78666 13.5171C4.57989 14.2887 5.52611 14.9051 6.57128 15.331C7.61646 15.7568 8.74012 15.9839 9.8781 15.9992C11.0161 16.0145 12.1461 15.8176 13.2037 15.42C14.2612 15.0223 15.2255 14.4316 16.0416 13.6816C16.0999 13.628 16.1573 13.5737 16.2131 13.5186C16.8268 12.9156 17.3443 12.2313 17.7494 11.4872C17.9141 11.1816 18 10.8435 18 10.5006C18 10.1576 17.9141 9.81953 17.7494 9.51397Z" stroke="#787878" stroke-width="1.4" stroke-miterlimit="10"/>
<path d="M11.8647 12.2634C12.8948 11.2895 12.8948 9.71048 11.8647 8.73656C10.8347 7.76264 9.16465 7.76264 8.1346 8.73656C7.10455 9.71048 7.10455 11.2895 8.1346 12.2634C9.16465 13.2374 10.8347 13.2374 11.8647 12.2634Z" fill="#787878"/>
</svg>
