<svg width="32" height="32" viewBox="0 0 32 32" fill="none" xmlns="http://www.w3.org/2000/svg">
<path d="M23.4727 5C24.1219 5 24.7571 5.2405 25.2354 5.6875C25.716 6.13671 26 6.76133 26 7.42773V19.9785L25.9951 20.1328C25.9715 20.4916 25.8654 20.8394 25.6865 21.1514C25.4824 21.5072 25.1913 21.8029 24.8457 22.0176L24.8418 22.0205L17.3691 26.6162C16.9589 26.8687 16.4847 27 16.0049 27C15.5251 27 15.0508 26.8687 14.6406 26.6162V26.6152L7.16797 22.0205V22.0195C6.82034 21.8076 6.5269 21.514 6.32031 21.1592C6.11212 20.8015 6.00019 20.3956 6 19.9795V7.42773C6 6.7613 6.28406 6.1367 6.76465 5.6875C7.24294 5.2405 7.87813 5 8.52734 5H23.4727Z" stroke="#333333" stroke-width="2"/>
</svg>
