<svg width="32" height="32" viewBox="0 0 32 32" fill="none" xmlns="http://www.w3.org/2000/svg">
<path d="M17.333 17.3776C17.5099 17.3776 17.668 17.4285 17.8389 17.5172C18.0057 17.6038 18.1955 17.7328 18.4346 17.8942L19.1484 18.3649C19.4441 18.5538 19.8028 18.7744 20.2402 19.027L20.5557 19.1949C21.3046 19.5593 22.1423 19.7526 22.9756 19.944L23.6719 20.109C24.3624 20.2821 25.0242 20.4924 25.5449 20.8512C25.8961 21.0932 26.186 21.4043 26.3809 21.817C26.5511 22.1778 26.6452 22.6099 26.6494 23.1305L26.6465 23.359C26.5988 24.5418 25.9627 25.3442 25.0957 25.8444C24.2347 26.341 23.1429 26.5426 22.1523 26.5426C21.7489 26.5426 21.3396 26.5111 20.9365 26.4479L20.9268 26.4459L20.917 26.443L19.1406 25.9156L19.1309 25.9127L19.1221 25.9088C19.0303 25.8675 18.9479 25.8278 18.8711 25.7887L18.6533 25.6705C17.6931 25.1162 16.8258 24.1921 16.2051 23.1656C15.585 22.1402 15.2011 20.9954 15.2275 19.9948L15.2383 19.7916C15.3211 18.788 15.8193 18.0178 16.6904 17.5748L16.8525 17.4967C17.0121 17.4256 17.166 17.3776 17.333 17.3776ZM17.3066 19.0953C17.1681 19.1869 17.0644 19.2961 16.9922 19.4293C16.9279 19.5479 16.8846 19.6894 16.8643 19.859L16.8516 20.0377C16.8341 20.6833 17.1036 21.5264 17.6064 22.3473L17.8047 22.653C18.285 23.3492 18.8791 23.925 19.4648 24.2633L19.7451 24.4108C20.4264 24.734 21.2854 24.9186 22.1523 24.9186C23.0201 24.9186 23.7846 24.7352 24.3086 24.4147L24.4775 24.3004C24.6335 24.1839 24.7513 24.0589 24.8369 23.9235C24.9505 23.7437 25.0126 23.5377 25.0225 23.2936L25.0215 23.0367C25.0095 22.8036 24.9653 22.6392 24.9072 22.5182C24.8501 22.3992 24.7755 22.3146 24.6904 22.2448L24.6025 22.1793C24.3943 22.0377 24.1049 21.921 23.7578 21.816C23.5849 21.7638 23.4003 21.7159 23.208 21.6686L22.6113 21.528C21.6773 21.3129 20.6108 21.0677 19.624 20.5426L19.4287 20.4342C18.9686 20.1689 18.5911 19.9372 18.2803 19.7389L17.5312 19.2448C17.4528 19.1919 17.3758 19.1412 17.3066 19.0953ZM12.2822 13.4391C13.8613 13.4391 15.225 13.8905 16.002 14.7096L16.1797 14.9156C16.5652 15.4114 16.7432 15.9993 16.708 16.6598C16.6882 17.0344 16.6203 17.286 16.4229 17.4908C16.2398 17.6807 15.9531 17.8185 15.5596 18.0104H15.5586C15.2564 18.1575 14.8396 18.3603 14.2812 18.6656L13.6738 19.0074C13.0551 19.3649 12.5227 19.8582 12.0146 20.3844L11.5127 20.9176C11.044 21.4208 10.5765 21.9235 10.0742 22.2985C9.56937 22.6753 9.01729 22.9323 8.37695 22.9323C7.90257 22.9322 7.42773 22.7927 6.93359 22.5162L6.71973 22.3893C6.04996 21.9659 5.60771 21.3367 5.43359 20.568L5.40234 20.4127C5.17198 19.0959 5.72002 17.4171 6.80371 16.0221L6.81738 16.0065L8.2168 14.6412L8.22363 14.6334L8.23242 14.6276C8.40956 14.4975 8.56114 14.3999 8.71484 14.3112L8.89941 14.2096C9.84152 13.716 11.0603 13.4391 12.2822 13.4391ZM12.2822 15.0631C11.3764 15.0631 10.4941 15.2485 9.80859 15.5709L9.52734 15.7174C8.95027 16.0511 8.39137 16.5805 7.93164 17.2281L7.74023 17.5123C7.3156 18.1849 7.05803 18.8729 6.99121 19.4772L6.97363 19.7301C6.96764 20.0364 7.01916 20.2948 7.11816 20.5026L7.20215 20.65C7.29659 20.7905 7.42299 20.9111 7.58789 21.0153L7.81934 21.1471C8.0382 21.2583 8.22078 21.3072 8.37695 21.3073C8.63013 21.3073 8.91635 21.1592 9.25098 20.8815C9.58208 20.6066 9.93449 20.2284 10.3223 19.8121L10.8643 19.2369C11.4312 18.6511 12.0778 18.0521 12.8613 17.6002L13.502 17.2399C14.0908 16.9177 14.5291 16.7037 14.8457 16.5494L15.084 16.4313C15.0705 16.1926 14.9868 16.0008 14.8223 15.8268V15.8278C14.3833 15.3653 13.445 15.0631 12.2822 15.0631ZM19.1074 5.45667C19.9935 5.45671 20.787 5.86536 21.4443 6.4469C22.0195 6.95579 22.4984 7.60325 22.8535 8.24963L22.998 8.526L23.0059 8.54553L23.6523 10.4684L23.6553 10.4791L23.6572 10.4889C23.7295 10.8812 23.7617 11.2313 23.7617 11.5641C23.7616 12.9179 23.2084 14.4561 22.3672 15.6559C21.5295 16.8505 20.3767 17.7496 19.1562 17.7496C18.7184 17.7496 18.2956 17.6362 17.8994 17.4137L17.7314 17.3112C17.4168 17.1067 17.233 16.9225 17.1543 16.649C17.0814 16.3955 17.1061 16.0782 17.1367 15.6412L17.1875 14.7867C17.1953 14.6115 17.2021 14.4187 17.207 14.2067L17.2148 13.5104L17.2012 13.1539C17.1591 12.5604 17.0196 11.9714 16.8516 11.3854L16.6406 10.6842C16.3607 9.77143 16.0754 8.84603 16.1426 8.00549C16.1766 7.58008 16.3003 7.17281 16.5605 6.79749C16.8203 6.42292 17.2106 6.08805 17.7637 5.79749L17.9258 5.71838C18.3055 5.5457 18.7018 5.45672 19.1064 5.45667H19.1074ZM19.2461 7.0885C19.0631 7.06805 18.8827 7.08922 18.7012 7.15491L18.5186 7.23596C18.1863 7.41056 18.0063 7.57544 17.9053 7.72327C17.8059 7.86871 17.7747 8.01044 17.7637 8.15784C17.7452 8.40846 17.7886 8.717 17.8711 9.06995C17.9533 9.42168 18.0712 9.80616 18.1943 10.2076L18.4219 10.9655C18.6454 11.7498 18.8398 12.6091 18.8398 13.5104C18.8398 14.0399 18.8279 14.4816 18.8115 14.8492L18.7578 15.7438C18.7511 15.8408 18.7452 15.9345 18.7402 16.0182C18.8816 16.09 19.0176 16.1246 19.1562 16.1246C19.419 16.1246 19.7352 16.0013 20.0713 15.7545C20.4052 15.5093 20.747 15.1512 21.0566 14.7037L21.1787 14.5201C21.775 13.5874 22.1366 12.4701 22.1367 11.5641C22.1367 11.1416 22.0616 10.672 21.918 10.1959L21.8525 9.99182C21.6894 9.51535 21.4621 9.05027 21.1914 8.63538L21.0732 8.46057C20.7951 8.06708 20.4845 7.74058 20.1709 7.50452L20.0361 7.40881C19.7531 7.22026 19.4922 7.11602 19.2461 7.0885Z" fill="#242424" stroke="#242424" stroke-width="0.3"/>
</svg>
