<svg width="24" height="24" viewBox="0 0 24 24" fill="none" xmlns="http://www.w3.org/2000/svg">
<path d="M13.75 6H4.25C3.00736 6 2 7.00736 2 8.25V15.75C2 16.9926 3.00736 18 4.25 18H13.75C14.9926 18 16 16.9926 16 15.75V8.25C16 7.00736 14.9926 6 13.75 6Z" stroke="#333333" stroke-width="1.5" stroke-miterlimit="10"/>
<path d="M16.7953 11.2072C16.3561 11.6466 16.3562 12.3589 16.7957 12.7981L20.0797 16.0806C20.7885 16.7891 22 16.2871 22 15.2849V8.7169C22 7.7145 20.788 7.21262 20.0793 7.92159L16.7953 11.2072Z" stroke="#333333" stroke-width="1.5" stroke-miterlimit="10"/>
<circle cx="9" cy="12" r="2" fill="#333333"/>
</svg>
