<svg width="22" height="22" viewBox="0 0 22 22" fill="none" xmlns="http://www.w3.org/2000/svg">
<circle cx="11" cy="11" r="11" fill="white"/>
<path d="M8.72382 10.5601C8.90892 9.97443 9.23695 9.70293 9.66104 9.75154H9.67393C9.73844 9.75932 9.80202 9.77362 9.86371 9.79422C9.97518 9.8287 10.079 9.88466 10.1695 9.95902L10.1812 9.96969C10.2156 9.99974 10.2466 10.0335 10.2737 10.0705L10.2866 10.0859C10.2994 10.1041 10.3112 10.1231 10.3218 10.1428L10.3417 10.1831C10.3542 10.2116 10.3659 10.2412 10.3768 10.272C10.3768 10.291 10.3886 10.31 10.3932 10.3301C10.3979 10.3503 10.4014 10.3669 10.405 10.3858C10.4111 10.4216 10.4154 10.4576 10.4178 10.4937C10.4178 10.5115 10.4178 10.5293 10.4178 10.5483C10.4178 10.5672 10.4178 10.6111 10.4178 10.6431C10.4089 10.7773 10.3857 10.91 10.3487 11.0391C10.1917 11.6035 10.2316 12.1275 10.6475 12.5603C11.3984 13.3404 12.1458 14.1253 12.9308 14.8699C13.5329 15.4425 14.3717 15.4081 14.8989 14.8592C15.0626 14.6907 15.1832 14.4844 15.2504 14.2581C15.3211 14.0065 15.3259 13.7406 15.2642 13.4866C15.2026 13.2325 15.0767 12.9991 14.8989 12.8093C14.6306 12.5105 14.3296 12.2413 14.0578 11.9461C13.9372 11.8247 13.8539 11.6704 13.8182 11.5021C13.7824 11.3337 13.7956 11.1585 13.8563 10.9976C13.8988 10.8941 13.9618 10.8005 14.0414 10.7226C14.2006 10.5709 14.4118 10.4879 14.6304 10.491C14.8491 10.4941 15.0579 10.5831 15.2129 10.7392C15.5824 11.084 15.9343 11.4477 16.2673 11.8287C16.4496 12.0382 16.6007 12.2735 16.7159 12.5271C16.9115 12.9832 17.0082 13.4764 16.9995 13.9735C16.9995 14.0589 16.9842 14.1443 16.9725 14.2296C16.8308 15.2765 16.2813 16.1622 15.207 16.6684C14.0718 17.2032 12.9272 17.1048 11.9853 16.2736C10.9977 15.3891 10.0672 14.4415 9.19946 13.4364C8.47663 12.6136 8.39462 11.5987 8.72382 10.5601ZM5.94614 5.88405C6.35518 5.48683 6.86283 5.20906 7.41523 5.08019L7.43749 5.07427C7.61086 5.03522 7.78725 5.01142 7.96468 5.00313H7.9799C8.15874 4.99479 8.33796 5.00313 8.51529 5.02803H8.52466C8.61136 5.03988 8.69688 5.05648 8.78123 5.07664H8.7906C8.87846 5.09679 8.96515 5.12288 9.05068 5.15133H9.05653C9.1362 5.1786 9.21469 5.21061 9.29084 5.245L9.32013 5.25804C9.39979 5.29598 9.47828 5.33629 9.55443 5.3766C9.62589 5.4181 9.69619 5.46433 9.76531 5.51413L9.80865 5.54496C9.87894 5.59713 9.94806 5.65166 10.0148 5.71094C10.6873 6.31087 11.3293 6.94755 11.9607 7.59489C12.1701 7.81068 12.3794 8.02725 12.5887 8.24461C13.1545 8.83742 13.4087 9.57488 13.4205 10.5103C13.4087 10.6289 13.397 10.8577 13.3584 11.0818C13.3278 11.2364 13.2815 11.3874 13.2201 11.5323C13.1891 11.6182 13.1498 11.7008 13.103 11.7789V11.7849C13.0889 11.8074 13.0749 11.8287 13.0596 11.8489L13.0514 11.8596C13.0374 11.8797 13.0221 11.8987 13.0069 11.9165L12.9987 11.9271C12.9835 11.9449 12.9671 11.9627 12.9507 11.9793C12.8828 12.0487 12.8035 12.1057 12.7164 12.1477L12.7035 12.1548L12.6508 12.1761L12.632 12.1832L12.5805 12.1987L12.5594 12.2046L12.5078 12.2153H12.4856C12.4676 12.2164 12.4496 12.2164 12.4317 12.2153H12.4118C12.3683 12.2164 12.3248 12.2141 12.2817 12.2081C12.2205 12.1999 12.1604 12.1848 12.1025 12.1631C11.9213 12.0991 11.7709 11.9677 11.6819 11.7955C11.6714 11.7754 11.662 11.754 11.6526 11.7315L11.6421 11.7054C11.6362 11.6865 11.6292 11.6675 11.6233 11.6485L11.6175 11.6284C11.6112 11.6058 11.6061 11.5828 11.6023 11.5596C11.6023 11.5596 11.6023 11.5537 11.6023 11.5513C11.5717 11.3614 11.5878 11.1667 11.6491 10.9846C11.7125 10.7907 11.7441 10.5877 11.7428 10.3835C11.736 10.1692 11.6868 9.95845 11.598 9.76376C11.5093 9.56907 11.3828 9.39438 11.2262 9.25002C10.5373 8.55643 9.85903 7.8498 9.16549 7.15977C8.97456 6.96748 8.73948 6.82612 8.48132 6.74836C8.25202 6.67725 8.00817 6.66908 7.77474 6.72471C7.5413 6.78033 7.32666 6.89774 7.15281 7.06492C7.01572 7.19366 6.90597 7.3493 6.83024 7.52236C6.75451 7.69541 6.71439 7.88226 6.71232 8.07151C6.71319 8.47101 6.86297 8.85546 7.13172 9.14806C7.38594 9.43616 7.67414 9.69226 7.93421 9.97799C8.06114 10.1105 8.15231 10.2738 8.19898 10.4522C8.23024 10.5858 8.22601 10.7254 8.18671 10.8568C8.14741 10.9882 8.07444 11.1067 7.97522 11.2004C7.62376 11.556 7.15515 11.5809 6.77089 11.2122C6.36308 10.8314 5.98254 10.4217 5.63217 9.98629C4.6727 8.78289 4.82851 6.96533 5.94263 5.88405H5.94614Z" fill="#0C63E2"/>
</svg>
