<svg width="20" height="20" viewBox="0 0 20 20" fill="none" xmlns="http://www.w3.org/2000/svg">
<circle cx="10.332" cy="10" r="7" stroke="#242424" stroke-width="1.2" stroke-miterlimit="10"/>
<path d="M10.4479 6C11.1543 6 11.7283 6.18681 12.1698 6.58242C12.6113 6.96703 12.832 7.49451 12.832 8.15385C12.832 8.69231 12.6885 9.14286 12.4126 9.49451C12.3133 9.61538 12.0042 9.9011 11.4855 10.3516C11.2757 10.5275 11.1212 10.7253 11.0219 10.9231C10.9005 11.1429 10.8453 11.3846 10.8453 11.6484V11.8352H9.66426V11.6484C9.66426 11.2418 9.73049 10.8901 9.88501 10.6044C10.0285 10.2967 10.4479 9.84615 11.1323 9.24176L11.3199 9.03297C11.5186 8.78022 11.6289 8.51648 11.6289 8.23077C11.6289 7.84615 11.5186 7.54945 11.3089 7.32967C11.0881 7.10989 10.768 7 10.3707 7C9.87397 7 9.50974 7.15385 9.28898 7.47253C9.09031 7.73626 8.99097 8.10989 8.99097 8.59341H7.83203C7.83203 7.79121 8.06382 7.16484 8.5274 6.7033C8.99097 6.23077 9.63115 6 10.4479 6ZM10.2492 12.4286C10.481 12.4286 10.6797 12.4945 10.8342 12.6484C10.9888 12.7912 11.066 12.978 11.066 13.2088C11.066 13.4396 10.9777 13.6264 10.8232 13.7802C10.6687 13.9231 10.47 14 10.2492 14C10.0285 14 9.82982 13.9231 9.6753 13.7692C9.52077 13.6154 9.44351 13.4286 9.44351 13.2088C9.44351 12.978 9.52077 12.7912 9.6753 12.6484C9.82982 12.4945 10.0285 12.4286 10.2492 12.4286Z" fill="#242424"/>
</svg>
