<svg width="20" height="20" viewBox="0 0 20 20" fill="none" xmlns="http://www.w3.org/2000/svg">
<path d="M11.4596 5H3.54297C2.50743 5 1.66797 5.83947 1.66797 6.875V13.125C1.66797 14.1605 2.50744 15 3.54297 15H11.4596C12.4952 15 13.3346 14.1605 13.3346 13.125V6.875C13.3346 5.83947 12.4952 5 11.4596 5Z" stroke="#242424" stroke-width="1.2" stroke-miterlimit="10"/>
<path d="M13.9987 9.33929C13.6327 9.7055 13.6328 10.2991 13.999 10.6651L16.7357 13.4005C17.3263 13.9909 18.3359 13.5725 18.3359 12.7374V7.26408C18.3359 6.42875 17.3259 6.01052 16.7354 6.60133L13.9987 9.33929Z" stroke="#242424" stroke-width="1.2" stroke-miterlimit="10"/>
<circle cx="7.5026" cy="10" r="1.66667" fill="#242424"/>
</svg>
