<svg width="20" height="20" viewBox="0 0 20 20" fill="none" xmlns="http://www.w3.org/2000/svg">
<path d="M12.2513 9.61511C12.5476 9.78618 12.5476 10.2138 12.2513 10.3849L9.20964 12.141C8.91334 12.3121 8.54297 12.0983 8.54297 11.7561L8.54297 8.2439C8.54297 7.90177 8.91334 7.68794 9.20964 7.859L12.2513 9.61511Z" fill="#242424"/>
<path d="M4.16667 4.16666C3.24619 4.16666 2.5 4.91285 2.5 5.83332V14.1667C2.5 15.0871 3.24619 15.8333 4.16667 15.8333H15.8333C16.7538 15.8333 17.5 15.0871 17.5 14.1667V8.32026C17.5 7.83818 17.2913 7.37972 16.9277 7.06319L14.0709 4.57625C13.7675 4.31214 13.3788 4.16666 12.9765 4.16666H4.16667Z" stroke="#242424" stroke-width="1.2" stroke-miterlimit="10"/>
</svg>
