<svg width="100" height="100" viewBox="0 0 100 100" fill="none" xmlns="http://www.w3.org/2000/svg">
<path d="M15 50C15 54.5963 15.9053 59.1475 17.6642 63.3939C19.4231 67.6403 22.0012 71.4987 25.2513 74.7487C28.5013 77.9988 32.3597 80.5769 36.6061 82.3358C40.8525 84.0947 45.4037 85 50 85C54.5963 85 59.1475 84.0947 63.3939 82.3358C67.6403 80.5769 71.4987 77.9988 74.7487 74.7487C77.9988 71.4987 80.5769 67.6403 82.3358 63.3939C84.0947 59.1475 85 54.5963 85 50C85 40.7174 81.3125 31.815 74.7487 25.2513C68.185 18.6875 59.2826 15 50 15C40.7174 15 31.815 18.6875 25.2513 25.2513C18.6875 31.815 15 40.7174 15 50Z" fill="#4A4A4A"/>
<path d="M45.2545 36.1338L64.409 47.5088C65.8902 48.3886 66.3515 50.2579 65.4384 51.685C65.1774 52.0954 64.8179 52.439 64.3899 52.6872L45.2354 63.8777C43.7479 64.7479 41.8102 64.2897 40.9081 62.8563C40.6108 62.3848 40.4531 61.8387 40.4531 61.2813V38.719C40.4531 37.0422 41.8627 35.6836 43.6031 35.6836C44.1854 35.6836 44.7581 35.8395 45.2545 36.1354V36.1338Z" fill="white"/>
</svg>
