<svg width="20" height="20" viewBox="0 0 20 20" fill="none" xmlns="http://www.w3.org/2000/svg">
<path d="M4.29199 7.83008C4.28716 7.64735 4.35353 7.47016 4.47656 7.33496C4.59962 7.19976 4.76975 7.11684 4.95215 7.10449C5.13458 7.09221 5.31496 7.15109 5.45508 7.26855L5.45801 7.27051L5.49805 7.30664L5.5 7.30957L9.72168 11.499L13.873 7.31348L13.9746 7.22949C14.0827 7.15507 14.21 7.11177 14.3428 7.10547C14.5198 7.09708 14.6939 7.15511 14.8301 7.26855L14.832 7.27051L14.8721 7.30664L14.875 7.30957C15.0008 7.43444 15.0757 7.60227 15.084 7.7793C15.0922 7.95624 15.0334 8.12957 14.9199 8.26562L14.918 8.26855L14.8818 8.30859L14.8789 8.31152L10.2295 12.999C10.1046 13.1248 9.9368 13.1997 9.75977 13.208C9.58287 13.2163 9.40949 13.1573 9.27344 13.0439L9.27051 13.042L9.23047 13.0059L9.22754 13.0029L4.50195 8.31543C4.37197 8.187 4.29691 8.01275 4.29199 7.83008Z" fill="#242424" stroke="black" stroke-width="0.166667"/>
</svg>
