<svg width="24" height="24" viewBox="0 0 24 24" fill="none" xmlns="http://www.w3.org/2000/svg">
<path d="M9.90755 18.5267C9.77153 18.6646 9.58744 18.7445 9.39383 18.7497C9.20022 18.7549 9.0121 18.6851 8.86885 18.5547C8.72561 18.4243 8.63834 18.2436 8.62533 18.0504C8.61232 17.8571 8.67457 17.6664 8.79905 17.518L8.84255 17.47L13.9396 12.3328L8.84705 7.28085C8.71384 7.14868 8.635 6.97138 8.62612 6.78393C8.61723 6.59649 8.67894 6.41252 8.79905 6.26835L8.84255 6.21997C8.97477 6.08681 9.1521 6.00805 9.33954 5.99923C9.52699 5.99041 9.71092 6.05218 9.85505 6.17235L9.90343 6.21585L15.5284 11.7958C15.6616 11.9281 15.7404 12.1054 15.7492 12.2928C15.758 12.4803 15.6962 12.6642 15.5761 12.8083L15.5326 12.8567L9.90755 18.5267Z" fill="#BFBFBF"/>
</svg>
