<svg width="24" height="24" viewBox="0 0 24 24" fill="none" xmlns="http://www.w3.org/2000/svg">
<path d="M21.5142 16.1711C21.6235 15.7588 21.6497 15.3292 21.5913 14.9068C21.5329 14.4845 21.3911 14.0777 21.1739 13.7097C20.9567 13.3417 20.6685 13.0197 20.3256 12.7622C19.9828 12.5047 19.5921 12.3167 19.1759 12.2089L18.3393 11.9961L18.3563 11.1399V11.027C18.3558 9.7508 17.8999 8.51588 17.0691 7.54073C16.2383 6.56558 15.0862 5.91304 13.8166 5.69855C12.5471 5.48406 11.2419 5.72144 10.132 6.3687C9.02205 7.01596 8.17891 8.03138 7.7517 9.23533L7.47676 10.0138L6.64933 9.96057C6.55245 9.95408 6.45689 9.95018 6.36 9.95018C5.23244 9.99297 4.16541 10.4668 3.38275 11.2723C2.60009 12.0778 2.16262 13.1523 2.16211 14.2705C2.1616 15.3887 2.59809 16.4636 3.38002 17.2698C4.16195 18.076 5.22855 18.5508 6.35607 18.5946H18.3616C19.0831 18.5915 19.7835 18.3522 20.3536 17.9139C20.9238 17.4756 21.3318 16.8629 21.5142 16.1711Z" fill="#D9D9D9"/>
</svg>
