<svg width="72" height="72" viewBox="0 0 72 72" fill="none" xmlns="http://www.w3.org/2000/svg">
<g filter="url(#filter0_d_1570_1729)">
<circle cx="36" cy="34" r="30" fill="#DBE0E8"/>
<circle cx="36" cy="34" r="29" stroke="white" stroke-width="2"/>
</g>
<mask id="mask0_1570_1729" style="mask-type:alpha" maskUnits="userSpaceOnUse" x="8" y="6" width="56" height="56">
<circle cx="36" cy="34" r="28" fill="#D9D9D9"/>
</mask>
<g mask="url(#mask0_1570_1729)">
<path d="M27.6619 30.8579C27.0509 30.262 26.2716 29.9226 25.555 30.0734C24.2602 30.3425 23.9409 31.4537 24.323 33.0201C24.7052 34.5864 26.083 35.6726 27.3753 35.401C27.6807 35.3465 27.9706 35.2265 28.2251 35.049C28.0964 34.5476 28.004 34.0376 27.9485 33.5229L27.6619 30.8579Z" stroke="#777777" stroke-width="1.59903" stroke-miterlimit="10"/>
<path d="M44.522 30.8579C45.133 30.262 45.9123 29.9226 46.6289 30.0734C47.9237 30.3425 48.243 31.4537 47.8609 33.0201C47.4787 34.5864 46.1009 35.6726 44.8086 35.401C44.5032 35.3465 44.2133 35.2265 43.9588 35.049C44.0875 34.5476 44.18 34.0376 44.2354 33.5229L44.522 30.8579Z" stroke="#777777" stroke-width="1.91756" stroke-miterlimit="10"/>
<path d="M43.8533 24.067L43.793 23.9388C43.253 22.8005 42.4003 21.8394 41.3345 21.1676C40.2687 20.4958 39.0338 20.1411 37.7739 20.1449H34.3999C33.1401 20.1411 31.9052 20.4958 30.8394 21.1676C29.7736 21.8394 28.9209 22.8005 28.3809 23.9388L28.3206 24.067C27.5088 25.7899 27.2295 27.7158 27.5185 29.5983L27.6543 30.8704L27.941 33.5355C27.9964 34.0502 28.0888 34.5602 28.2175 35.0616C28.634 36.7054 29.4228 38.2314 30.523 39.5218C31.5783 40.7555 33.0485 41.5603 34.6564 41.7846C35.6021 41.9166 36.5617 41.9166 37.5075 41.7846C39.1148 41.5609 40.5844 40.7558 41.6383 39.5218C43.0817 37.8313 43.9824 35.7453 44.2229 33.5355L44.6453 29.5983C44.9375 27.7168 44.6617 25.7909 43.8533 24.067Z" fill="#DBE0E8" stroke="#777777" stroke-width="1.91756" stroke-miterlimit="10"/>
<path d="M42.0205 39.1095L41.9249 46.4409C41.9203 46.8232 42.0248 47.1989 42.226 47.5239C42.4273 47.849 42.717 48.1099 43.0613 48.2762L54.6417 53.8678C56.171 54.6057 57.4745 55.7401 58.4163 57.1529C59.3582 58.5657 59.904 60.2052 59.997 61.9007L60.0799 63.3841H12.0009L12.0839 61.9007C12.1779 60.2055 12.7241 58.5665 13.6659 57.1538C14.6076 55.7412 15.9105 54.6065 17.4391 53.8678L29.0196 48.2762C29.3638 48.1099 29.6536 47.849 29.8548 47.5239C30.0561 47.1989 30.1606 46.8232 30.156 46.4409L30.0604 38.9134" stroke="#777777" stroke-width="1.91756" stroke-miterlimit="10"/>
<path d="M28.1144 48.8093C29.1376 49.8847 30.3689 50.7406 31.7335 51.3249C33.0981 51.9092 34.5673 52.2097 36.0517 52.208C37.5361 52.2064 39.0046 51.9027 40.3679 51.3153C41.7312 50.728 42.9607 49.8693 43.9815 48.7917" stroke="#777777" stroke-width="1.91756" stroke-miterlimit="10"/>
<path d="M31.3049 17.593C31.3049 17.593 25.9421 17.6206 26.1634 23.446C26.3997 29.6888 28.2376 33.0603 28.2376 33.0603C28.2376 33.0603 27.9861 28.7409 27.9032 26.986C27.8202 25.2311 29.3815 26.1639 31.5538 21.5654C31.5538 21.5654 36.3634 26.2267 44.0544 25.8395C44.0544 25.8395 44.3888 26.6969 44.0544 31.8585C44.0544 32.0144 44.6854 31.323 44.9318 30.2922C45.4523 28.1099 45.9753 24.4416 45.9753 24.4416C46.458 21.3467 45.3542 18.3824 42.7973 16.7306C41.2234 15.7249 39.026 14.9505 35.9863 14.9505C35.9863 14.9606 32.5569 14.8776 31.3049 17.593Z" fill="#777777"/>
</g>
<defs>
<filter id="filter0_d_1570_1729" x="0" y="0" width="72" height="72" filterUnits="userSpaceOnUse" color-interpolation-filters="sRGB">
<feFlood flood-opacity="0" result="BackgroundImageFix"/>
<feColorMatrix in="SourceAlpha" type="matrix" values="0 0 0 0 0 0 0 0 0 0 0 0 0 0 0 0 0 0 127 0" result="hardAlpha"/>
<feOffset dy="2"/>
<feGaussianBlur stdDeviation="3"/>
<feColorMatrix type="matrix" values="0 0 0 0 0 0 0 0 0 0 0 0 0 0 0 0 0 0 0.12 0"/>
<feBlend mode="normal" in2="BackgroundImageFix" result="effect1_dropShadow_1570_1729"/>
<feBlend mode="normal" in="SourceGraphic" in2="effect1_dropShadow_1570_1729" result="shape"/>
</filter>
</defs>
</svg>
