<svg width="16" height="16" viewBox="0 0 16 16" fill="none" xmlns="http://www.w3.org/2000/svg">
<mask id="path-1-inside-1_7569_15603" fill="white">
<path d="M14.0001 4.35416C14.0001 3.05399 12.9461 2 11.646 2H5.72012C5.05107 2 4.71654 2 4.43798 2.05314C3.22921 2.28372 2.28384 3.22909 2.05326 4.43786C2.00012 4.71642 2.00012 5.05094 2.00012 5.72V10.28C2.00012 10.9491 2.00012 11.2836 2.05326 11.5621C2.28384 12.7709 3.22921 13.7163 4.43798 13.9469C4.71654 14 5.05107 14 5.72012 14H11.6491C12.9475 14 14.0001 12.9474 14.0001 11.6489"/>
</mask>
<path d="M12.8001 4.35416C12.8001 5.0169 13.3374 5.55416 14.0001 5.55416C14.6629 5.55416 15.2001 5.0169 15.2001 4.35416H12.8001ZM15.2001 11.6489C15.2001 10.9862 14.6629 10.4489 14.0001 10.4489C13.3374 10.4489 12.8001 10.9862 12.8001 11.6489H15.2001ZM2.05326 11.5621L0.874516 11.787L2.05326 11.5621ZM4.43798 13.9469L4.21312 15.1256L4.43798 13.9469ZM11.646 2V0.8H5.72012V2V3.2H11.646V2ZM2.00012 5.72H0.800122V10.28H2.00012H3.20012V5.72H2.00012ZM5.72012 14V15.2H11.6491V14V12.8H5.72012V14ZM11.6491 14V15.2C13.6103 15.2 15.2001 13.6101 15.2001 11.6489H14.0001H12.8001C12.8001 12.2847 12.2848 12.8 11.6491 12.8V14ZM2.00012 10.28H0.800122C0.800122 10.8939 0.794764 11.3689 0.874516 11.787L2.05326 11.5621L3.23201 11.3373C3.20548 11.1982 3.20012 11.0042 3.20012 10.28H2.00012ZM5.72012 14V12.8C4.99589 12.8 4.80188 12.7946 4.66284 12.7681L4.43798 13.9469L4.21312 15.1256C4.63119 15.2054 5.10624 15.2 5.72012 15.2V14ZM2.05326 11.5621L0.874516 11.787C1.19733 13.4793 2.52085 14.8028 4.21312 15.1256L4.43798 13.9469L4.66284 12.7681C3.93758 12.6298 3.37036 12.0625 3.23201 11.3373L2.05326 11.5621ZM5.72012 2V0.8C5.10624 0.8 4.63119 0.794642 4.21312 0.874393L4.43798 2.05314L4.66284 3.23188C4.80188 3.20536 4.99589 3.2 5.72012 3.2V2ZM2.00012 5.72H3.20012C3.20012 4.99577 3.20548 4.80176 3.23201 4.66271L2.05326 4.43786L0.874516 4.213C0.794764 4.63107 0.800122 5.10612 0.800122 5.72H2.00012ZM4.43798 2.05314L4.21312 0.874393C2.52085 1.19721 1.19733 2.52073 0.874516 4.213L2.05326 4.43786L3.23201 4.66271C3.37036 3.93746 3.93758 3.37023 4.66284 3.23188L4.43798 2.05314ZM14.0001 4.35416H15.2001C15.2001 2.39125 13.6089 0.8 11.646 0.8V2V3.2C12.2834 3.2 12.8001 3.71673 12.8001 4.35416H14.0001Z" fill="white" mask="url(#path-1-inside-1_7569_15603)"/>
<path d="M6 8H10.75" stroke="white" stroke-width="1.2" stroke-linecap="round" stroke-linejoin="round"/>
<path d="M9.34106 5.78763L11.4624 7.90895L9.34106 10.0303" stroke="white" stroke-width="1.2" stroke-miterlimit="10" stroke-linecap="round" stroke-linejoin="round"/>
</svg>
