<svg width="26" height="26" viewBox="0 0 26 26" fill="none" xmlns="http://www.w3.org/2000/svg">
<path d="M5 21H21" stroke="#BFBFBF" stroke-miterlimit="10" stroke-linecap="round"/>
<path d="M12.232 17.0776L8.30359 18.3146C8.17245 18.356 8.06644 18.3477 7.99867 18.2909C7.93091 18.234 7.90435 18.131 7.9223 17.9947L8.45835 13.9112C8.47259 13.7963 8.51852 13.6611 8.59198 13.5178C8.66543 13.3746 8.76407 13.2278 8.87891 13.0909L14.9747 5.82616C15.1586 5.60705 15.3714 5.42756 15.5665 5.32717C15.7615 5.22678 15.9227 5.21371 16.0146 5.29085L19.4069 8.13735C19.4988 8.21449 19.514 8.37551 19.449 8.58499C19.384 8.79447 19.2442 9.03525 19.0603 9.25436L12.9645 16.5191C12.8501 16.6554 12.7234 16.7777 12.5956 16.8752C12.4678 16.9726 12.3429 17.0422 12.232 17.0776Z" stroke="#BFBFBF" stroke-miterlimit="10" stroke-linecap="round"/>
</svg>
