<svg width="20" height="20" viewBox="0 0 20 20" fill="none" xmlns="http://www.w3.org/2000/svg">
<path d="M7.2708 14.5423L7.27075 14.5423L7.2687 14.5448C7.15114 14.6849 7.09234 14.8651 7.10463 15.0476C7.11692 15.2301 7.19934 15.4008 7.33462 15.5239C7.46991 15.647 7.64758 15.713 7.83044 15.7081C8.01325 15.7032 8.18706 15.6277 8.31552 15.4976C8.31555 15.4975 8.31559 15.4975 8.31562 15.4975L13.003 10.7726L13.003 10.7727L13.0058 10.7697L13.042 10.7293L13.0421 10.7294L13.044 10.727C13.1575 10.5909 13.2159 10.4171 13.2076 10.2401C13.1992 10.0631 13.1248 9.8956 12.9991 9.77073L12.999 9.77071L8.31154 5.12071L8.31162 5.12064L8.30858 5.11791L8.26826 5.08166L8.2683 5.08161L8.26591 5.07962C8.12979 4.96613 7.95606 4.90779 7.77903 4.91612C7.602 4.92444 7.43453 4.99883 7.30966 5.1246L7.30959 5.12453L7.30683 5.12759L7.27058 5.1679L7.27054 5.16786L7.26852 5.17028C7.15508 5.30645 7.0968 5.48019 7.10519 5.65722C7.11358 5.83426 7.18804 6.00171 7.31385 6.12653L7.37254 6.06737L7.31385 6.12653L11.4984 10.2778L7.30964 14.4996L7.30958 14.4996L7.30705 14.5023L7.2708 14.5423Z" fill="#242424" stroke="black" stroke-width="0.166667"/>
</svg>
