<svg width="20" height="20" viewBox="0 0 20 20" fill="none" xmlns="http://www.w3.org/2000/svg">
<path d="M12.1699 4.29199C12.3527 4.28716 12.5298 4.35353 12.665 4.47656C12.8002 4.59962 12.8832 4.76976 12.8955 4.95215C12.9078 5.13458 12.8489 5.31497 12.7314 5.45508L12.7295 5.45801L12.6934 5.49805L12.6904 5.5L8.50098 9.72168L12.6865 13.873L12.7705 13.9746C12.8449 14.0827 12.8882 14.21 12.8945 14.3428C12.9029 14.5198 12.8449 14.6939 12.7314 14.8301L12.7295 14.832L12.6934 14.8721L12.6904 14.875C12.5656 15.0008 12.3977 15.0757 12.2207 15.084C12.0438 15.0922 11.8704 15.0334 11.7344 14.9199L11.7314 14.918L11.6914 14.8818L11.6885 14.8789L7.00098 10.2295C6.87521 10.1046 6.80032 9.9368 6.79199 9.75977C6.78371 9.58287 6.8427 9.40949 6.95605 9.27344L6.95801 9.27051L6.99414 9.23047L6.99707 9.22754L11.6846 4.50195C11.813 4.37198 11.9873 4.29691 12.1699 4.29199Z" fill="#242424" stroke="#242424" stroke-width="0.166667"/>
</svg>
