<svg width="40" height="40" viewBox="0 0 40 40" fill="none" xmlns="http://www.w3.org/2000/svg">
<path d="M20.7645 6.61643C20.3234 6.2574 19.6909 6.25728 19.2497 6.61614L5.84782 17.517C5.00706 18.2008 5.49063 19.5617 6.57439 19.5617C7.21031 19.5617 7.72583 20.0772 7.72583 20.7131V32.8C7.72583 33.4627 8.26309 34 8.92583 34H14.297C14.9598 34 15.497 33.4627 15.497 32.8V28.6928C15.497 28.0301 16.0343 27.4928 16.697 27.4928H23.3043C23.967 27.4928 24.5043 28.0301 24.5043 28.6928V32.8C24.5043 33.4627 25.0415 34 25.7043 34H31.0886C31.7514 34 32.2886 33.4627 32.2886 32.8V20.7102C32.2886 20.0759 32.8028 19.5617 33.4371 19.5617C34.5179 19.5617 35.0004 18.2047 34.1622 17.5224L20.7645 6.61643Z" stroke="#333333" stroke-width="2"/>
<rect x="14.667" y="18" width="10.6667" height="2" rx="1" fill="#333333"/>
</svg>
