<svg width="20" height="20" viewBox="0 0 20 20" fill="none" xmlns="http://www.w3.org/2000/svg">
<circle cx="10" cy="10" r="10" fill="#0C63E2"/>
<path d="M6.72328 6.72314L5.18834 5.19287C4.55632 5.82408 4.05524 6.57387 3.71389 7.39921C3.37254 8.22454 3.19764 9.10916 3.19923 10.0023H5.36496C5.36421 9.39319 5.48381 8.78998 5.71691 8.22725C5.95001 7.66451 6.29201 7.15336 6.72328 6.72314Z" stroke="white" stroke-width="0.6" stroke-miterlimit="10"/>
<path d="M10.0003 5.37778V3.2085C9.10663 3.20723 8.2215 3.38264 7.39586 3.72463C6.57022 4.06661 5.82037 4.56842 5.18945 5.2012L6.72439 6.73147C7.15459 6.3016 7.66538 5.96077 8.22751 5.72849C8.78964 5.4962 9.39207 5.37702 10.0003 5.37778Z" stroke="white" stroke-width="0.6" stroke-miterlimit="10"/>
<path d="M14.6295 10.002C14.6303 10.61 14.511 11.2123 14.2787 11.7742C14.0463 12.3362 13.7054 12.8468 13.2754 13.2769L14.8103 14.8113C15.442 14.1799 15.9428 13.43 16.2841 12.6047C16.6255 11.7795 16.8006 10.895 16.7994 10.002H14.6295Z" stroke="white" stroke-width="0.6" stroke-miterlimit="10"/>
<path d="M14.6295 10.002H16.7994C16.8005 9.10957 16.6253 8.22575 16.284 7.40118C15.9426 6.5766 15.4419 5.82748 14.8103 5.19678L13.2754 6.72703C13.7054 7.1571 14.0463 7.66773 14.2787 8.22969C14.511 8.79164 14.6303 9.39389 14.6295 10.002Z" stroke="white" stroke-width="0.6" stroke-miterlimit="10"/>
<path d="M13.2759 6.72317L14.8109 5.1929C14.18 4.56012 13.4301 4.05831 12.6045 3.71633C11.7788 3.37434 10.8937 3.19893 10 3.2002V5.37788C10.6077 5.37602 11.2098 5.49387 11.7719 5.7247C12.334 5.95553 12.845 6.29482 13.2759 6.72317Z" stroke="white" stroke-width="0.6" stroke-miterlimit="10"/>
<path d="M10 14.6265V16.7957C10.8937 16.797 11.7788 16.6216 12.6045 16.2796C13.4301 15.9376 14.18 15.4358 14.8109 14.803L13.2759 13.2686C12.8461 13.6992 12.3355 14.0408 11.7733 14.2738C11.2112 14.5068 10.6086 14.6267 10 14.6265Z" stroke="white" stroke-width="0.6" stroke-miterlimit="10"/>
<path d="M5.36496 10.002H3.19922C3.19809 10.895 3.3732 11.7795 3.71453 12.6047C4.05585 13.43 4.55668 14.1799 5.18834 14.8113L6.72327 13.2769C6.29251 12.8472 5.9508 12.3367 5.71772 11.7747C5.48463 11.2127 5.36476 10.6103 5.36496 10.002Z" stroke="white" stroke-width="0.6" stroke-miterlimit="10"/>
<path d="M6.72439 13.2729L5.18945 14.8074C5.82037 15.4402 6.57022 15.942 7.39586 16.284C8.2215 16.626 9.10663 16.8014 10.0003 16.8001V14.6266C9.39207 14.6274 8.78964 14.5082 8.22751 14.2759C7.66538 14.0436 7.15459 13.7028 6.72439 13.2729Z" stroke="white" stroke-width="0.6" stroke-miterlimit="10"/>
<path d="M10.4281 11.1079V9.61915C10.4281 9.51434 10.4118 9.4245 10.3792 9.34963C10.3465 9.27477 10.2954 9.21595 10.2257 9.17316C10.156 9.13038 10.0657 9.10899 9.95468 9.10899C9.86107 9.10899 9.77944 9.12504 9.70978 9.15712C9.6423 9.18921 9.59005 9.2352 9.55304 9.29509C9.51821 9.35498 9.5008 9.42878 9.5008 9.51648H8.48202C8.48202 9.36033 8.51794 9.21488 8.58978 9.08012C8.66162 8.94536 8.76393 8.82664 8.89672 8.72397C9.03168 8.62129 9.19277 8.54215 9.37998 8.48653C9.56719 8.42878 9.77726 8.3999 10.0102 8.3999C10.2866 8.3999 10.5326 8.44589 10.7481 8.53787C10.9658 8.62771 11.1378 8.76354 11.2641 8.94536C11.3903 9.12504 11.4535 9.35177 11.4535 9.62557V11.079C11.4535 11.2887 11.4654 11.4534 11.4894 11.5732C11.5155 11.6908 11.5525 11.7935 11.6004 11.8812V11.9357H10.5718C10.5239 11.8352 10.488 11.7111 10.4641 11.5635C10.4401 11.4138 10.4281 11.2619 10.4281 11.1079ZM10.5555 9.81808L10.562 10.37H10.0559C9.9427 10.37 9.84474 10.3839 9.76202 10.4117C9.68148 10.4395 9.61617 10.478 9.56611 10.5272C9.51604 10.5742 9.47903 10.6298 9.45508 10.694C9.43332 10.7561 9.42243 10.8245 9.42243 10.8994C9.42243 10.97 9.43985 11.0341 9.47468 11.0919C9.50951 11.1475 9.5574 11.1913 9.61835 11.2234C9.6793 11.2555 9.75005 11.2716 9.83059 11.2716C9.96338 11.2716 10.0766 11.2459 10.1702 11.1946C10.266 11.1432 10.34 11.0812 10.3922 11.0085C10.4445 10.9336 10.4706 10.8641 10.4706 10.7999L10.7155 11.217C10.6763 11.3026 10.6284 11.3913 10.5718 11.4833C10.5152 11.5732 10.4434 11.6577 10.3563 11.7368C10.2692 11.8138 10.1637 11.8769 10.0396 11.9261C9.91767 11.9753 9.77073 11.9999 9.59876 11.9999C9.37672 11.9999 9.17536 11.9561 8.99468 11.8684C8.814 11.7785 8.66923 11.6555 8.56039 11.4994C8.45372 11.3432 8.40039 11.1635 8.40039 10.9603C8.40039 10.7785 8.43413 10.617 8.50162 10.4758C8.5691 10.3347 8.67032 10.2149 8.80529 10.1165C8.94243 10.0181 9.1144 9.94429 9.32121 9.89509C9.52801 9.84375 9.76964 9.81808 10.0461 9.81808H10.5555Z" fill="white"/>
</svg>
