<svg width="24" height="24" viewBox="0 0 24 24" fill="none" xmlns="http://www.w3.org/2000/svg">
<path d="M15.8977 8.9502L15.9113 8.97559L17.4318 11.7627L17.4338 11.7656L17.8781 12.7256C17.825 12.2173 17.7629 11.6131 17.7629 11.0859V8.9502H18.8527V14.2832H17.7121L17.6984 14.2568L16.1848 11.4561L16.1828 11.4541V11.4531L15.7287 10.4922C15.7771 11.0115 15.84 11.5949 15.84 12.1328V14.2832H14.7502V8.9502H15.8977Z" fill="white" stroke="white" stroke-width="0.1"/>
<path d="M12.3185 8.9502L12.3293 8.98438L14.0129 14.2178L14.0334 14.2832H12.8303L12.8205 14.2461L12.4621 12.9395H10.842L10.4846 14.2461L10.4738 14.2832H9.30682L9.32733 14.2178L11.0041 8.98438L11.0148 8.9502H12.3185ZM11.6457 9.93848C11.5187 10.4697 11.3771 11.0151 11.2336 11.5176L11.0959 12.0264H12.2092L12.0705 11.5166V11.5156C11.9208 11.0141 11.7865 10.4619 11.6457 9.93848Z" fill="white" stroke="white" stroke-width="0.1"/>
<path d="M6.69668 8.9502V13.3066H8.81777V14.2832H5.55019V8.9502H6.69668Z" fill="white" stroke="white" stroke-width="0.1"/>
<rect x="2.25" y="5.25" width="19.5" height="12.75" rx="2.25" stroke="white" stroke-width="1.5"/>
</svg>
