<svg width="20" height="20" viewBox="0 0 20 20" fill="none" xmlns="http://www.w3.org/2000/svg">
<circle cx="10" cy="10" r="10" fill="#0C63E2"/>
<path d="M8.43269 5.6524L7.69607 3.62061C6.95047 3.89058 6.25807 4.28924 5.65039 4.79845L7.03944 6.45167C7.45371 6.10615 7.92522 5.83565 8.43269 5.6524Z" stroke="white" stroke-width="0.6" stroke-miterlimit="10"/>
<path d="M5.98761 7.68803L4.11872 6.60693C3.72033 7.29235 3.44671 8.04293 3.31055 8.82382L5.44041 9.19821C5.53162 8.66634 5.71692 8.15495 5.98761 7.68803Z" stroke="white" stroke-width="0.6" stroke-miterlimit="10"/>
<path d="M7.0235 6.45155L5.63446 4.79834C5.02674 5.30743 4.51375 5.91979 4.11914 6.6072L5.98804 7.68829C6.25979 7.21982 6.61003 6.8015 7.0235 6.45155Z" stroke="white" stroke-width="0.6" stroke-miterlimit="10"/>
<path d="M10.0032 5.3663V3.2041C9.20993 3.20648 8.42335 3.34889 7.67969 3.62476L8.4163 5.65656C8.92419 5.46775 9.4613 5.3695 10.0032 5.3663Z" stroke="white" stroke-width="0.6" stroke-miterlimit="10"/>
<path d="M12.9792 6.45167L14.3724 4.79845C13.7642 4.29009 13.0719 3.89152 12.3268 3.62061L11.5859 5.6524C12.0934 5.83565 12.5649 6.10615 12.9792 6.45167Z" stroke="white" stroke-width="0.6" stroke-miterlimit="10"/>
<path d="M14.5609 9.19821L16.6907 8.82382C16.5541 8.04367 16.282 7.29341 15.8868 6.60693L14.0137 7.68803C14.2844 8.15495 14.4697 8.66634 14.5609 9.19821Z" stroke="white" stroke-width="0.6" stroke-miterlimit="10"/>
<path d="M14.6383 10.0016C14.6366 10.2711 14.6112 10.54 14.5625 10.805L16.6924 11.1794C16.7631 10.7908 16.7998 10.3966 16.8018 10.0016C16.7998 9.60652 16.7631 9.21241 16.6924 8.82373L14.5625 9.19813C14.6112 9.46321 14.6366 9.73206 14.6383 10.0016Z" stroke="white" stroke-width="0.6" stroke-miterlimit="10"/>
<path d="M14.014 7.68829L15.8871 6.6072C15.4896 5.92177 14.977 5.30987 14.3718 4.79834L12.9785 6.45155C13.392 6.8015 13.7422 7.21982 14.014 7.68829Z" stroke="white" stroke-width="0.6" stroke-miterlimit="10"/>
<path d="M11.5866 5.65216L12.3274 3.62037C11.5836 3.34509 10.7971 3.2027 10.0039 3.19971V5.3619C10.5444 5.36508 11.0802 5.46333 11.5866 5.65216Z" stroke="white" stroke-width="0.6" stroke-miterlimit="10"/>
<path d="M11.5859 14.3516L12.3268 16.3792C13.0717 16.1097 13.7639 15.7126 14.3724 15.2056L12.9792 13.5439C12.5665 13.8938 12.0947 14.1673 11.5859 14.3516Z" stroke="white" stroke-width="0.6" stroke-miterlimit="10"/>
<path d="M10.0039 14.6332V16.7954C10.7971 16.7924 11.5836 16.65 12.3274 16.3748L11.5866 14.3472C11.0799 14.5346 10.5442 14.6314 10.0039 14.6332Z" stroke="white" stroke-width="0.6" stroke-miterlimit="10"/>
<path d="M12.9785 13.5436L14.3718 15.201C14.9761 14.6885 15.4886 14.0768 15.8871 13.3921L14.014 12.311C13.7435 12.7792 13.3931 13.1963 12.9785 13.5436Z" stroke="white" stroke-width="0.6" stroke-miterlimit="10"/>
<path d="M14.5609 10.8052C14.4697 11.3371 14.2844 11.8484 14.0137 12.3154L15.8868 13.3965C16.282 12.71 16.5541 11.9597 16.6907 11.1796L14.5609 10.8052Z" stroke="white" stroke-width="0.6" stroke-miterlimit="10"/>
<path d="M5.98804 12.3154L4.11914 13.3965C4.51504 14.083 5.02785 14.6952 5.63446 15.2054L7.0235 13.548C6.60896 13.2007 6.25851 12.7836 5.98804 12.3154Z" stroke="white" stroke-width="0.6" stroke-miterlimit="10"/>
<path d="M8.43388 14.3516L7.69727 16.3791C8.44093 16.655 9.22752 16.7974 10.0208 16.7998V14.6376C9.47913 14.6358 8.94203 14.5389 8.43388 14.3516Z" stroke="white" stroke-width="0.6" stroke-miterlimit="10"/>
<path d="M5.36471 10.0016C5.36638 9.73206 5.39173 9.46321 5.44048 9.19813L3.31061 8.82373C3.23985 9.21241 3.20323 9.60652 3.20117 10.0016C3.20323 10.3966 3.23985 10.7908 3.31061 11.1794L5.44048 10.805C5.39173 10.54 5.36638 10.2711 5.36471 10.0016Z" stroke="white" stroke-width="0.6" stroke-miterlimit="10"/>
<path d="M5.44041 10.8052L3.31055 11.1796C3.44671 11.9605 3.72033 12.711 4.11872 13.3965L5.98761 12.3154C5.71692 11.8484 5.53162 11.3371 5.44041 10.8052Z" stroke="white" stroke-width="0.6" stroke-miterlimit="10"/>
<path d="M7.0238 13.5439L5.63477 15.2014C6.24262 15.7093 6.93504 16.1065 7.68045 16.375L8.41706 14.3474C7.90859 14.1644 7.43679 13.8923 7.0238 13.5439Z" stroke="white" stroke-width="0.6" stroke-miterlimit="10"/>
<path d="M10.2858 8.44408L9.1157 12.1884H7.87305L9.63649 7.44775H10.4243L10.2858 8.44408ZM11.2549 12.1884L10.0815 8.44408L9.92985 7.44775H10.7275L12.5009 12.1884H11.2549ZM11.2088 10.4204V11.3028H8.74653V10.4204H11.2088Z" fill="white"/>
</svg>
