<svg width="20" height="20" viewBox="0 0 20 20" fill="none" xmlns="http://www.w3.org/2000/svg">
<circle cx="10" cy="10" r="10" fill="#0C63E2"/>
<circle cx="10.0012" cy="9.99971" r="7.1" stroke="white" stroke-width="0.6"/>
<path d="M12.8008 12.615L12.2344 11.8018C12.1194 11.6366 11.9308 11.5381 11.7294 11.5381L9.20078 11.5381" stroke="white" stroke-width="0.6"/>
<path d="M12.8008 7.38401L12.2344 8.19724C12.1194 8.36245 11.9308 8.46094 11.7294 8.46094L9.20078 8.46094" stroke="white" stroke-width="0.6"/>
<path d="M13.7012 9.99951L9.20117 9.99951" stroke="white" stroke-width="0.6"/>
<mask id="path-6-outside-1_7893_15815" maskUnits="userSpaceOnUse" x="6.70117" y="4.99951" width="5" height="10" fill="black">
<rect fill="white" x="6.70117" y="4.99951" width="5" height="10"/>
<path d="M10.7012 13.0764L10.7012 13.3841C10.7012 13.724 10.4257 13.9995 10.0858 13.9995L8.61656 13.9995C8.27669 13.9995 8.00117 13.724 8.00117 13.3841L8.00117 6.6149C8.00117 6.27503 8.27669 5.99951 8.61656 5.99951L10.0858 5.99951C10.4257 5.99951 10.7012 6.27503 10.7012 6.6149L10.7012 6.92259"/>
</mask>
<path d="M11.3012 13.0764C11.3012 12.7451 11.0325 12.4764 10.7012 12.4764C10.3698 12.4764 10.1012 12.7451 10.1012 13.0764L11.3012 13.0764ZM10.1012 6.92259C10.1012 7.25396 10.3698 7.52259 10.7012 7.52259C11.0325 7.52259 11.3012 7.25396 11.3012 6.92259L10.1012 6.92259ZM10.7012 13.0764L10.1012 13.0764L10.1012 13.3841L10.7012 13.3841L11.3012 13.3841L11.3012 13.0764L10.7012 13.0764ZM10.0858 13.9995L10.0858 13.3995L8.61656 13.3995L8.61656 13.9995L8.61656 14.5995L10.0858 14.5995L10.0858 13.9995ZM8.00117 13.3841L8.60117 13.3841L8.60117 6.6149L8.00117 6.6149L7.40117 6.6149L7.40117 13.3841L8.00117 13.3841ZM8.61656 5.99951L8.61656 6.59951L10.0858 6.59951L10.0858 5.99951L10.0858 5.39951L8.61656 5.39951L8.61656 5.99951ZM10.7012 6.6149L10.1012 6.6149L10.1012 6.92259L10.7012 6.92259L11.3012 6.92259L11.3012 6.6149L10.7012 6.6149ZM10.0858 5.99951L10.0858 6.59951C10.089 6.59951 10.0906 6.60005 10.0916 6.60047C10.093 6.60107 10.0948 6.60219 10.0967 6.60402C10.0985 6.60585 10.0996 6.60769 10.1002 6.60909C10.1006 6.6101 10.1012 6.61167 10.1012 6.6149L10.7012 6.6149L11.3012 6.6149C11.3012 5.94366 10.757 5.39951 10.0858 5.39951L10.0858 5.99951ZM8.00117 6.6149L8.60117 6.6149C8.60117 6.61166 8.60171 6.6101 8.60213 6.60909C8.60273 6.60769 8.60385 6.60585 8.60568 6.60402C8.60751 6.60219 8.60934 6.60107 8.61075 6.60047C8.61176 6.60005 8.61332 6.59951 8.61656 6.59951L8.61656 5.99951L8.61656 5.39951C7.94532 5.39951 7.40117 5.94366 7.40117 6.6149L8.00117 6.6149ZM8.61656 13.9995L8.61656 13.3995C8.61333 13.3995 8.61176 13.399 8.61075 13.3985C8.60935 13.398 8.6075 13.3968 8.60568 13.395C8.60385 13.3932 8.60273 13.3913 8.60213 13.3899C8.60171 13.3889 8.60117 13.3874 8.60117 13.3841L8.00117 13.3841L7.40117 13.3841C7.40117 14.0554 7.94532 14.5995 8.61656 14.5995L8.61656 13.9995ZM10.7012 13.3841L10.1012 13.3841C10.1012 13.3874 10.1006 13.3889 10.1002 13.3899C10.0996 13.3913 10.0985 13.3932 10.0967 13.395C10.0948 13.3968 10.093 13.398 10.0916 13.3986C10.0906 13.399 10.089 13.3995 10.0858 13.3995L10.0858 13.9995L10.0858 14.5995C10.757 14.5995 11.3012 14.0554 11.3012 13.3841L10.7012 13.3841Z" fill="white" mask="url(#path-6-outside-1_7893_15815)"/>
<path d="M13.0996 9.07621L13.9996 9.99929L13.0996 10.9224" stroke="white" stroke-width="0.6" stroke-miterlimit="10" stroke-linecap="square" stroke-linejoin="round"/>
</svg>
