<svg width="25" height="24" viewBox="0 0 25 24" fill="none" xmlns="http://www.w3.org/2000/svg">
<circle cx="12.5" cy="12" r="12" fill="#242424"/>
<path d="M15.8491 11.9008C15.8322 10.2556 17.1147 9.46344 17.1725 9.42509C16.4492 8.3087 15.3259 8.15724 14.9257 8.13931C13.9692 8.03814 13.0606 8.73809 12.5758 8.73876C12.0913 8.7395 11.3416 8.15989 10.5491 8.17691C9.50647 8.19425 8.54694 8.82092 8.01073 9.80918C6.93119 11.8001 7.74044 14.7452 8.79733 16.3572C9.31401 17.1452 9.92971 18.0324 10.7375 17.9991C11.5152 17.966 11.8085 17.4655 12.7479 17.4643C13.6877 17.463 13.953 17.9947 14.7752 17.977C15.612 17.9602 16.1411 17.1708 16.652 16.3783C17.2432 15.4613 17.4855 14.574 17.5 14.5283C17.482 14.5195 15.868 13.8672 15.8491 11.9008ZM14.3053 7.07545C14.7343 6.52563 15.0227 5.76153 14.9439 5C14.3265 5.02656 13.5787 5.4357 13.1353 5.98486C12.7382 6.47144 12.3903 7.24915 12.4843 7.99549C13.1725 8.05192 13.8762 7.62468 14.3053 7.07545Z" fill="white"/>
</svg>
