<svg width="25" height="24" viewBox="0 0 25 24" fill="none" xmlns="http://www.w3.org/2000/svg">
<path d="M20.4992 12.1862C20.5088 11.6361 20.4508 11.0859 20.3282 10.5515H12.6626V13.5206H17.1632C16.9922 14.5735 16.3889 15.5095 15.4952 16.1166L15.4791 16.2146L17.902 18.0548L18.0698 18.0707C19.6087 16.6762 20.4992 14.6241 20.4992 12.1862Z" fill="#4285F4"/>
<path d="M12.6624 20.0001C14.8659 20.0001 16.7178 19.2886 18.0696 18.0618L15.4951 16.1045C14.6595 16.6547 13.669 16.933 12.6656 16.9045C10.5492 16.8919 8.678 15.5512 8.01984 13.5781L7.92306 13.5876L5.40336 15.4974L5.37109 15.586C6.75193 18.2958 9.57489 20.0032 12.6624 20.0001Z" fill="#34A853"/>
<path d="M8.01661 13.5903C7.83917 13.0812 7.7456 12.5468 7.7456 12.0061C7.74883 11.4686 7.83917 10.9342 8.01016 10.422L8.00693 10.3177L5.45497 8.37622L5.37109 8.41416C4.20964 10.675 4.20964 13.3373 5.37109 15.5981L8.01661 13.5903Z" fill="#FBBC05"/>
<path d="M12.6625 7.09288C13.8336 7.0739 14.9628 7.50077 15.8178 8.28493L18.1213 6.08105C16.6437 4.72141 14.6854 3.97835 12.6593 4.00048C9.57177 4.00048 6.74881 5.70478 5.36475 8.41141L8.00382 10.4193C8.66842 8.44619 10.5429 7.10552 12.6625 7.09288Z" fill="#EB4335"/>
<circle cx="12.5" cy="12" r="11.8" stroke="#E2E2E2" stroke-width="0.4"/>
</svg>
