<svg width="25" height="24" viewBox="0 0 25 24" fill="none" xmlns="http://www.w3.org/2000/svg">
<path d="M1.5 12.2916C1.5 17.2233 4.57837 21.4164 8.86881 22.9557C9.44686 23.1065 9.35878 22.6825 9.35878 22.3961V20.4395C6.02258 20.8408 5.88954 18.5742 5.66382 18.1964C5.21056 17.4023 4.14253 17.1997 4.46092 16.8219C5.22065 16.4206 5.99506 16.9237 6.89058 18.285C7.53929 19.2713 8.80458 19.1046 9.44778 18.9397C9.58582 18.3556 9.88159 17.8234 10.3011 17.4041C6.84562 16.7692 5.40416 14.6034 5.40416 12.0268C5.40416 10.7777 5.80604 9.6293 6.59238 8.70231C6.0914 7.17428 6.63917 5.86764 6.71166 5.67358C8.1412 5.54169 9.62395 6.72398 9.73956 6.8163C10.5516 6.59115 11.4774 6.47245 12.5133 6.47245C13.5547 6.47245 14.486 6.59491 15.3026 6.82289C15.5779 6.60622 16.9561 5.59162 18.2847 5.71597C18.3553 5.91003 18.8902 7.18653 18.4195 8.69289C19.2169 9.62176 19.6224 10.7805 19.6224 12.0334C19.6224 14.6138 18.1727 16.7814 14.7072 17.4089C15.004 17.709 15.2396 18.0669 15.4003 18.4615C15.5609 18.8562 15.6435 19.2797 15.6431 19.7075V22.5478C15.6623 22.7748 15.6431 23 16.0128 23C20.3657 21.4936 23.5 17.2694 23.5 12.2935C23.5 6.05323 18.5737 1 12.5014 1C6.42172 0.997175 1.5 6.05134 1.5 12.2916Z" fill="#242424"/>
</svg>
