<svg width="20" height="20" viewBox="0 0 20 20" fill="none" xmlns="http://www.w3.org/2000/svg">
<path fill-rule="evenodd" clip-rule="evenodd" d="M11.9669 11.4947L10.8339 12.3094C10.3357 12.6677 9.6642 12.6677 9.16592 12.3094L8.03294 11.4947C7.96652 11.4469 7.91241 11.3841 7.87506 11.3114C7.83772 11.2387 7.8182 11.1582 7.81812 11.0766V6.87984C7.81812 6.74294 7.87265 6.61162 7.96973 6.51481C8.0668 6.418 8.19846 6.36364 8.33575 6.36364H11.6641C11.8014 6.36364 11.9331 6.418 12.0302 6.51481C12.1272 6.61162 12.1818 6.74294 12.1818 6.87984V11.0766C12.1817 11.1582 12.1621 11.2387 12.1248 11.3114C12.0875 11.3841 12.0333 11.4469 11.9669 11.4947Z" stroke="#242424" stroke-width="1.4"/>
<path d="M5.54297 2.7002H14.457C14.9593 2.7002 15.218 2.70207 15.3936 2.71777L15.5469 2.73828C16.3616 2.8937 17.01 3.50068 17.2246 4.29199L17.2617 4.45312C17.2968 4.63701 17.2998 4.87379 17.2998 5.54297V16.2285C17.2998 16.4043 17.2989 16.5115 17.2969 16.5811L17.2871 16.708C17.2381 16.9649 17.0559 17.1724 16.8145 17.2578L16.708 17.2871C16.6567 17.2969 16.5793 17.2998 16.2285 17.2998H3.77148C3.59568 17.2998 3.48852 17.2989 3.41895 17.2969L3.29199 17.2871C3.03508 17.2381 2.82761 17.0559 2.74219 16.8145L2.71289 16.708C2.70311 16.6567 2.7002 16.5793 2.7002 16.2285V5.54297C2.7002 5.04067 2.70207 4.78197 2.71777 4.60645L2.73828 4.45312C2.8937 3.63839 3.50068 2.98995 4.29199 2.77539L4.45312 2.73828C4.63701 2.70323 4.87379 2.7002 5.54297 2.7002Z" stroke="#242424" stroke-width="1.4"/>
<path d="M5.63647 14.3636L14.3637 14.3636" stroke="#242424" stroke-width="1.4" stroke-linecap="square"/>
<path d="M5.63647 8.54545H7.81829" stroke="#242424" stroke-width="1.4" stroke-linecap="square"/>
<path d="M12.1819 8.54545H14.3637" stroke="#242424" stroke-width="1.4" stroke-linecap="square"/>
</svg>
