<svg width="20" height="20" viewBox="0 0 20 20" fill="none" xmlns="http://www.w3.org/2000/svg">
<path d="M16.4762 18H3.52381C2.60952 18 2 17.3905 2 16.4762V8.47619C2 8.01905 2.30476 7.71429 2.7619 7.71429H17.2381C17.6952 7.71429 18 8.01905 18 8.47619V16.4762C18 17.3905 17.3905 18 16.4762 18ZM3.52381 9.2381V16.4762H16.4762V9.2381H3.52381Z" fill="#242424"/>
<path d="M17.2381 9.23809H2.7619C2.30476 9.23809 2 8.93333 2 8.47619V4.66667C2 3.75238 2.60952 3.14286 3.52381 3.14286H16.4762C17.3905 3.14286 18 3.75238 18 4.66667V8.47619C18 8.93333 17.6952 9.23809 17.2381 9.23809ZM3.52381 7.71428H16.4762V4.66667H3.52381V7.71428Z" fill="#242424"/>
<path d="M6.95228 6.57142C6.49513 6.57142 6.19037 6.26666 6.19037 5.80951V2.7619C6.19037 2.30475 6.49513 1.99999 6.95228 1.99999C7.40942 1.99999 7.71418 2.30475 7.71418 2.7619V5.80951C7.71418 6.26666 7.40942 6.57142 6.95228 6.57142ZM13.0475 6.57142C12.5904 6.57142 12.2856 6.26666 12.2856 5.80951V2.7619C12.2856 2.30475 12.5904 1.99999 13.0475 1.99999C13.5047 1.99999 13.8094 2.30475 13.8094 2.7619V5.80951C13.8094 6.26666 13.5047 6.57142 13.0475 6.57142ZM13.8094 14.9524H11.5237C11.0666 14.9524 10.7618 14.6476 10.7618 14.1905C10.7618 13.7333 11.0666 13.4286 11.5237 13.4286H13.8094C14.2666 13.4286 14.5713 13.7333 14.5713 14.1905C14.5713 14.6476 14.2666 14.9524 13.8094 14.9524ZM8.47608 14.9524H6.19037C5.73323 14.9524 5.42847 14.6476 5.42847 14.1905C5.42847 13.7333 5.73323 13.4286 6.19037 13.4286H8.47608C8.93323 13.4286 9.23799 13.7333 9.23799 14.1905C9.23799 14.6476 8.93323 14.9524 8.47608 14.9524ZM13.8094 11.9047H11.5237C11.0666 11.9047 10.7618 11.6 10.7618 11.1428C10.7618 10.6857 11.0666 10.3809 11.5237 10.3809H13.8094C14.2666 10.3809 14.5713 10.6857 14.5713 11.1428C14.5713 11.6 14.2666 11.9047 13.8094 11.9047ZM8.47608 11.9047H6.19037C5.73323 11.9047 5.42847 11.6 5.42847 11.1428C5.42847 10.6857 5.73323 10.3809 6.19037 10.3809H8.47608C8.93323 10.3809 9.23799 10.6857 9.23799 11.1428C9.23799 11.6 8.93323 11.9047 8.47608 11.9047Z" fill="#242424"/>
</svg>
