<svg width="20" height="20" viewBox="0 0 20 20" fill="none" xmlns="http://www.w3.org/2000/svg">
<path d="M7.67188 2.90039L7.8291 2.90723C8.19373 2.93956 8.53968 3.08379 8.81445 3.32129L10.9717 5.18652L11.0361 5.23242C11.1044 5.2726 11.1837 5.29489 11.2656 5.29492H14.6826C15.6216 5.29494 16.3906 6.02508 16.3906 6.93457V8.54492H16.3926L16.5664 8.55273C17.4245 8.63631 18.0996 9.33195 18.0996 10.1846L18.0908 10.3564C18.0783 10.4707 18.0527 10.5832 18.0156 10.6924L17.9512 10.8525L15.9629 15.1289C15.7046 15.6841 15.1502 16.052 14.5283 16.0957L14.4033 16.0996H3.60742C2.66867 16.0995 1.90062 15.3702 1.90039 14.4609V4.53906C1.90062 3.62983 2.66868 2.90051 3.60742 2.90039H7.67188ZM6.11035 9.77539C6.04767 9.78406 5.98776 9.80583 5.93457 9.83887C5.88159 9.87181 5.83681 9.91477 5.80371 9.96484L5.77441 10.0176L3.78516 14.2939C3.76071 14.3465 3.74805 14.4037 3.74805 14.4609L3.75684 14.543C3.79687 14.7292 3.97043 14.874 4.18457 14.874H14.4033L14.4668 14.8691C14.5293 14.8604 14.5895 14.8386 14.6426 14.8057C14.7132 14.7617 14.7681 14.6994 14.8018 14.627L16.791 10.3506L16.8193 10.2695C16.8255 10.2417 16.8281 10.2131 16.8281 10.1846C16.8281 9.98845 16.682 9.81854 16.4814 9.7793L16.3926 9.77148H6.17285L6.11035 9.77539ZM3.60742 4.12598C3.36282 4.1261 3.17211 4.31517 3.17188 4.53906V12.6162L4.61426 9.51562L4.66992 9.40723C4.96654 8.87782 5.54312 8.54507 6.17285 8.54492H15.1182V6.93457C15.1182 6.71043 14.9275 6.5215 14.6826 6.52148H11.2656C10.897 6.52145 10.5391 6.40667 10.2451 6.19629L10.123 6.09961L7.96582 4.23438C7.90592 4.18258 7.83207 4.14797 7.75293 4.13379L7.67188 4.12598H3.60742Z" fill="#242424" stroke="#242424" stroke-width="0.2"/>
</svg>
