<svg width="16" height="16" viewBox="0 0 16 16" fill="none" xmlns="http://www.w3.org/2000/svg">
<path d="M10.5994 8.49653C11.2891 7.9569 11.7924 7.21691 12.0395 6.37951C12.2866 5.5421 12.2651 4.64893 11.978 3.82425C11.6909 2.99956 11.1525 2.28438 10.4376 1.7782C9.7228 1.27201 8.86709 1 7.98957 1C7.11204 1 6.25633 1.27201 5.54149 1.7782C4.82665 2.28438 4.28822 2.99956 4.00112 3.82425C3.71401 4.64893 3.69251 5.5421 3.9396 6.37951C4.18669 7.21691 4.69008 7.9569 5.37974 8.49653C4.19799 8.96738 3.16687 9.74835 2.39631 10.7562C1.62575 11.764 1.14463 12.9609 1.00424 14.2192C0.994081 14.3111 1.00221 14.4041 1.02818 14.4928C1.05414 14.5816 1.09743 14.6643 1.15556 14.7365C1.27298 14.8821 1.44375 14.9754 1.63032 14.9958C1.81689 15.0162 2.00397 14.9621 2.1504 14.8453C2.29684 14.7285 2.39063 14.5587 2.41116 14.3731C2.56562 13.0056 3.22132 11.7425 4.25296 10.8253C5.2846 9.90815 6.61987 9.40112 8.00364 9.40112C9.38741 9.40112 10.7227 9.90815 11.7543 10.8253C12.786 11.7425 13.4416 13.0056 13.5961 14.3731C13.6152 14.545 13.6977 14.7038 13.8276 14.8188C13.9575 14.9338 14.1257 14.9968 14.2996 14.9958H14.377C14.5614 14.9747 14.7299 14.8819 14.8458 14.7378C14.9618 14.5937 15.0158 14.4098 14.996 14.2262C14.8549 12.9643 14.3712 11.7643 13.5967 10.755C12.8222 9.7456 11.7861 8.96489 10.5994 8.49653ZM7.98957 7.99981C7.43304 7.99981 6.88902 7.83569 6.42629 7.5282C5.96356 7.22071 5.6029 6.78366 5.38993 6.27232C5.17696 5.76098 5.12123 5.19832 5.22981 4.65549C5.33838 4.11265 5.60637 3.61403 5.99989 3.22267C6.39341 2.83131 6.89479 2.56478 7.44062 2.45681C7.98645 2.34883 8.55221 2.40425 9.06637 2.61605C9.58053 2.82786 10.02 3.18653 10.3292 3.64672C10.6384 4.10692 10.8034 4.64796 10.8034 5.20143C10.8034 5.9436 10.5069 6.65538 9.97924 7.18018C9.45155 7.70498 8.73584 7.99981 7.98957 7.99981Z" fill="#999999"/>
</svg>
