<svg width="16" height="16" viewBox="0 0 16 16" fill="none" xmlns="http://www.w3.org/2000/svg">
<path d="M13.2002 3.53698C13.1119 3.43756 13.0034 3.35648 12.8813 3.29871C12.7592 3.24095 12.6262 3.20771 12.4902 3.20105C11.0874 3.12624 9.72021 2.74896 8.49022 2.09725C8.33799 2.02594 8.16938 1.99291 8.00022 2.00127C7.82554 2.0038 7.65406 2.0466 7.50022 2.12605C6.26922 2.75419 4.91185 3.12082 3.52022 3.20105C3.38551 3.20154 3.2523 3.22815 3.12857 3.27928C3.00485 3.33041 2.89316 3.40501 2.80022 3.49859C2.70452 3.58861 2.62866 3.69618 2.57712 3.81489C2.52559 3.93361 2.49943 4.06106 2.50022 4.18966V8.00015C2.49173 8.95164 2.73274 9.88988 3.20107 10.7285C3.6694 11.5672 4.35 12.2793 5.18022 12.7993C5.96557 13.3305 6.83745 13.7327 7.76022 13.9894C7.84326 13.9988 7.92717 13.9988 8.01022 13.9894C8.07608 14.0035 8.14436 14.0035 8.21022 13.9894H8.28022C9.19365 13.7326 10.0556 13.3302 10.8302 12.7993C11.6573 12.2769 12.3349 11.564 12.8013 10.7257C13.2677 9.88745 13.508 8.95044 13.5002 8.00015V4.22806C13.501 4.09945 13.4748 3.972 13.4233 3.85329C13.3718 3.73457 13.2959 3.62701 13.2002 3.53698ZM12.2002 4.44881V8.00015C12.1986 8.74774 12.003 9.48318 11.6312 10.1401C11.2593 10.7969 10.7228 11.3546 10.0702 11.7627C9.44386 12.2144 8.74459 12.5646 8.00022 12.7993C7.24922 12.5864 6.53736 12.2626 5.89022 11.8394C5.23579 11.4339 4.69908 10.8759 4.33022 10.2173C3.94787 9.53685 3.75498 8.77316 3.77022 8.00015V4.44881C5.25046 4.32869 6.68971 3.92047 8.00022 3.24904C9.30628 3.93083 10.7478 4.33971 12.2302 4.44881H12.2002Z" fill="#999999"/>
<path d="M6.23063 7.56821C6.13901 7.48476 6.02468 7.42787 5.90082 7.40409C5.77697 7.38032 5.64864 7.39063 5.53063 7.43384C5.45583 7.4663 5.38801 7.51187 5.33063 7.56821C5.2696 7.62511 5.22187 7.69382 5.19063 7.76978C5.15762 7.84244 5.1406 7.92086 5.14063 8.00013C5.14197 8.16256 5.21029 8.31785 5.33063 8.43205L7.00063 10.035C7.05841 10.0884 7.12629 10.1307 7.20062 10.1597C7.27865 10.195 7.36446 10.2115 7.45062 10.2077C7.52997 10.2216 7.61128 10.2216 7.69063 10.2077C7.76785 10.1743 7.8388 10.1289 7.90063 10.0733L11.2406 6.86754C11.3573 6.75179 11.4219 6.59668 11.4206 6.43562C11.4218 6.35579 11.4065 6.27652 11.3756 6.20239C11.3447 6.12825 11.2989 6.06073 11.2406 6.0037C11.1196 5.89225 10.9584 5.83002 10.7906 5.83002C10.6229 5.83002 10.4617 5.89225 10.3406 6.0037L7.45062 8.7392L6.23063 7.56821Z" fill="#999999"/>
</svg>
