<svg width="100" height="100" viewBox="0 0 100 100" fill="none" xmlns="http://www.w3.org/2000/svg">
<path d="M100 50C100 77.6142 77.6142 100 50 100C22.3858 100 0 77.6142 0 50C0 22.3858 22.3858 0 50 0C77.6142 0 100 22.3858 100 50Z" fill="#E0E0E0"/>
<path d="M57.42 51.42C59.3808 49.8773 60.812 47.7618 61.5145 45.3679C62.217 42.9739 62.1558 40.4205 61.3396 38.0629C60.5233 35.7053 58.9925 33.6608 56.9601 32.2137C54.9278 30.7666 52.4949 29.989 50 29.989C47.5051 29.989 45.0722 30.7666 43.0399 32.2137C41.0075 33.6608 39.4767 35.7053 38.6604 38.0629C37.8442 40.4205 37.783 42.9739 38.4855 45.3679C39.188 47.7618 40.6192 49.8773 42.58 51.42C39.2201 52.7661 36.2886 54.9987 34.0978 57.8798C31.907 60.761 30.5391 64.1826 30.14 67.78C30.1111 68.0426 30.1342 68.3084 30.208 68.5621C30.2819 68.8158 30.4049 69.0525 30.5702 69.2587C30.904 69.675 31.3896 69.9417 31.92 70C32.4504 70.0583 32.9823 69.9036 33.3986 69.5698C33.815 69.236 34.0816 68.7504 34.14 68.22C34.5792 64.3104 36.4434 60.6996 39.3764 58.0776C42.3095 55.4556 46.1058 54.0061 50.04 54.0061C53.9742 54.0061 57.7705 55.4556 60.7036 58.0776C63.6366 60.6996 65.5008 64.3104 65.94 68.22C65.9944 68.7114 66.2289 69.1653 66.5982 69.494C66.9675 69.8228 67.4456 70.003 67.94 70H68.16C68.6843 69.9397 69.1634 69.6746 69.4931 69.2625C69.8228 68.8504 69.9762 68.3247 69.92 67.8C69.519 64.1924 68.1437 60.762 65.9417 57.8764C63.7396 54.9908 60.7938 52.759 57.42 51.42ZM50 50C48.4177 50 46.871 49.5308 45.5554 48.6518C44.2398 47.7727 43.2145 46.5233 42.609 45.0615C42.0035 43.5997 41.845 41.9911 42.1537 40.4393C42.4624 38.8874 43.2243 37.462 44.3431 36.3432C45.462 35.2243 46.8874 34.4624 48.4393 34.1537C49.9911 33.845 51.5997 34.0035 53.0615 34.609C54.5233 35.2145 55.7727 36.2399 56.6518 37.5554C57.5308 38.871 58 40.4178 58 42C58 44.1217 57.1571 46.1566 55.6568 47.6569C54.1566 49.1572 52.1217 50 50 50Z" fill="white"/>
</svg>
