<svg width="28" height="28" viewBox="0 0 28 28" fill="none" xmlns="http://www.w3.org/2000/svg">
<rect x="3" y="3" width="22" height="22" rx="5" fill="#0C63E2"/>
<path d="M18.4853 7.1084C17.1859 6.87429 16.1243 7.01982 15.2981 7.54077C14.4719 8.06173 13.9036 8.93491 13.5957 10.1582L12.6293 13.9757H12.6318L11.768 17.3862C11.6053 18.0316 11.3599 18.483 11.0344 18.7424C10.709 19.0018 10.2558 19.0777 9.67745 18.9744C9.3019 18.9069 8.90131 18.7846 8.47069 18.6074L8 20.455C8.41561 20.6406 8.92134 20.7861 9.51721 20.8916C10.8166 21.1257 11.8782 20.9802 12.7044 20.4592C13.5306 19.9383 14.0989 19.0651 14.4068 17.8418L15.3733 14.0243H15.3707L16.2345 10.6138C16.3972 9.96839 16.6426 9.51703 16.9681 9.25761C17.2936 8.99819 17.7467 8.92226 18.3251 9.02561C18.7006 9.0931 19.1012 9.21543 19.5318 9.39259L20 7.54288C19.5869 7.3615 19.0812 7.21597 18.4853 7.1084Z" fill="#DEEAFF"/>
</svg>
