<svg width="28" height="28" viewBox="0 0 28 28" fill="none" xmlns="http://www.w3.org/2000/svg">
<path d="M3 7.96C3 7.06793 3 6.62189 3.07085 6.25047C3.3783 4.63879 4.63879 3.3783 6.25047 3.07085C6.62189 3 7.06793 3 7.96 3H20.04C20.9321 3 21.3781 3 21.7495 3.07085C23.3612 3.3783 24.6217 4.63879 24.9291 6.25047C25 6.62189 25 7.06793 25 7.96V22.52C25 22.966 25 23.1891 24.9646 23.3748C24.8109 24.1806 24.1806 24.8109 23.3748 24.9646C23.1891 25 22.966 25 22.52 25H5.48C5.03396 25 4.81094 25 4.62524 24.9646C3.81939 24.8109 3.18915 24.1806 3.03543 23.3748C3 23.1891 3 22.966 3 22.52V7.96Z" fill="#0C63E2"/>
<path fill-rule="evenodd" clip-rule="evenodd" d="M16.7046 16.0552L15.1676 17.1604C14.47 17.662 13.53 17.662 12.8324 17.1604L11.2954 16.0552C11.2041 15.9895 11.1297 15.9031 11.0783 15.8031C11.027 15.7032 11.0001 15.5926 11 15.4803V9.70978C11 9.52153 11.075 9.34097 11.2085 9.20785C11.3419 9.07475 11.523 9 11.7117 9H16.2882C16.477 9 16.6581 9.07475 16.7915 9.20785C16.925 9.34097 17 9.52153 17 9.70978V15.4803C16.9999 15.5926 16.973 15.7032 16.9217 15.8031C16.8703 15.9031 16.7959 15.9895 16.7046 16.0552Z" stroke="#DEEAFF" stroke-width="1.7"/>
<path d="M8 20L20 20" stroke="#DEEAFF" stroke-width="1.7" stroke-linecap="round"/>
<path d="M8 12H11" stroke="#DEEAFF" stroke-width="1.7" stroke-linecap="round"/>
<path d="M17 12H20" stroke="#DEEAFF" stroke-width="1.7" stroke-linecap="round"/>
</svg>
