<svg width="28" height="28" viewBox="0 0 28 28" fill="none" xmlns="http://www.w3.org/2000/svg">
<path d="M23.9982 5.77025C22.733 4.60141 21.0783 3.98364 19.3813 4.04653C17.6843 4.10943 16.0768 4.8481 14.8961 6.1076L14.5181 6.47659L14.1197 6.06544C12.939 4.80594 11.3315 4.06727 9.63449 4.00437C7.93747 3.94147 6.28278 4.55923 5.01756 5.72807C4.39281 6.3343 3.89237 7.06384 3.54594 7.8734C3.1995 8.68296 3.01411 9.55606 3.00077 10.4409C2.98744 11.3258 3.14641 12.2045 3.46828 13.0248C3.79015 13.845 4.26836 14.5903 4.87455 15.2163L12.475 23.1442C12.7369 23.4154 13.0482 23.6307 13.3909 23.7775C13.7336 23.9244 14.101 24 14.4721 24C14.8432 24 15.2107 23.9244 15.5534 23.7775C15.8961 23.6307 16.2073 23.4154 16.4693 23.1442L24.1208 15.2479C24.7267 14.6235 25.2051 13.88 25.5278 13.0615C25.8505 12.2429 26.0109 11.366 25.9994 10.4824C25.988 9.59875 25.805 8.72648 25.4613 7.91712C25.1175 7.10776 24.62 6.37776 23.9982 5.77025Z" fill="#0C63E2"/>
<path d="M8 9V9C6.90233 10.0132 6.85178 11.7307 7.88797 12.8067L10 15" stroke="#DEEAFF" stroke-width="1.7" stroke-linecap="round"/>
</svg>
