<svg width="28" height="28" viewBox="0 0 28 28" fill="none" xmlns="http://www.w3.org/2000/svg">
<path d="M15.5221 6.74882L15.5363 6.73495L15.5498 6.72047C16.572 5.63007 17.9578 4.99602 19.4145 4.94203C20.8669 4.88819 22.2881 5.41482 23.3809 6.41999C23.9129 6.94199 24.3402 7.56976 24.6365 8.26741C24.9344 8.96903 25.0935 9.7262 25.1034 10.4939C25.1133 11.2617 24.9739 12.0231 24.6941 12.7328C24.4144 13.4426 24.0002 14.0853 23.4777 14.6239L23.4772 14.6243L15.8257 22.5206L15.8247 22.5217C15.6446 22.7082 15.4322 22.8545 15.2004 22.9539C14.9687 23.0532 14.7213 23.1039 14.4721 23.1039C14.223 23.1039 13.9756 23.0532 13.7438 22.9539C13.5125 22.8547 13.3004 22.7087 13.1206 22.5227C13.1202 22.5224 13.1199 22.522 13.1196 22.5217L5.52141 14.5961L5.52142 14.5961L5.51829 14.5929C4.99548 14.053 4.58156 13.4087 4.30247 12.6974C4.02337 11.9861 3.88519 11.2233 3.89678 10.4545C3.90837 9.6856 4.06947 8.92772 4.36978 8.22595C4.66861 7.52764 5.09882 6.89991 5.63373 6.37883C6.72668 5.373 8.14835 4.84601 9.60129 4.89986C11.0579 4.95385 12.4437 5.58791 13.4659 6.6783L13.471 6.68371L13.4761 6.68903L13.8746 7.10018L14.5005 7.74611L15.1441 7.11781L15.5221 6.74882Z" stroke="#4A4A4A" stroke-width="1.79221" stroke-miterlimit="10"/>
<path d="M8 9V9C6.90233 10.0132 6.85178 11.7307 7.88797 12.8067L10 15" stroke="#4A4A4A" stroke-width="1.7" stroke-linecap="round"/>
</svg>
