<svg width="28" height="28" viewBox="0 0 28 28" fill="none" xmlns="http://www.w3.org/2000/svg">
<path fill-rule="evenodd" clip-rule="evenodd" d="M16.7046 16.0552L15.1676 17.1604C14.47 17.662 13.53 17.662 12.8324 17.1604L11.2954 16.0552C11.2041 15.9895 11.1297 15.9031 11.0783 15.8031C11.027 15.7032 11.0001 15.5926 11 15.4803V9.70978C11 9.52153 11.075 9.34097 11.2085 9.20785C11.3419 9.07475 11.523 9 11.7117 9H16.2882C16.477 9 16.6581 9.07475 16.7915 9.20785C16.925 9.34097 17 9.52153 17 9.70978V15.4803C16.9999 15.5926 16.973 15.7032 16.9217 15.8031C16.8703 15.9031 16.7959 15.9895 16.7046 16.0552Z" stroke="#595E66" stroke-width="1.7"/>
<path d="M7.96 3.85H20.04C20.9712 3.85 21.3177 3.8538 21.5903 3.9058C22.8595 4.14791 23.8521 5.14055 24.0942 6.40975C24.1462 6.68234 24.15 7.02884 24.15 7.96V22.52C24.15 23.0051 24.1462 23.1286 24.1296 23.2155C24.0412 23.6788 23.6788 24.0412 23.2155 24.1296C23.1286 24.1462 23.0051 24.15 22.52 24.15H5.48C4.99488 24.15 4.8714 24.1462 4.78451 24.1296C4.32115 24.0412 3.95876 23.6788 3.87037 23.2155C3.8538 23.1286 3.85 23.0051 3.85 22.52V7.96C3.85 7.02884 3.8538 6.68234 3.9058 6.40975C4.14791 5.14055 5.14055 4.14791 6.40975 3.9058C6.68234 3.8538 7.02884 3.85 7.96 3.85Z" stroke="#595E66" stroke-width="1.7"/>
<path d="M8 20L20 20" stroke="#595E66" stroke-width="1.7" stroke-linecap="round"/>
<path d="M8 12H11" stroke="#595E66" stroke-width="1.7" stroke-linecap="round"/>
<path d="M17 12H20" stroke="#595E66" stroke-width="1.7" stroke-linecap="round"/>
</svg>
