<svg width="28" height="28" viewBox="0 0 28 28" fill="none" xmlns="http://www.w3.org/2000/svg">
<path d="M14.0001 3.85H19.1501V9C19.1501 11.8443 16.8444 14.15 14.0001 14.15C11.1559 14.15 8.85012 11.8443 8.85012 9C8.85012 6.15573 11.1559 3.85 14.0001 3.85Z" stroke="#595E66" stroke-width="1.7"/>
<path d="M10 8L14 8" stroke="#595E66" stroke-width="1.7" stroke-linecap="round"/>
<path d="M7.4602 24.15C7.46022 24.15 7.46025 24.15 7.46027 24.15L20.5412 24.1488C20.5413 24.1488 20.5414 24.1488 20.5414 24.1488C21.293 24.1485 21.9832 23.9145 22.4652 23.5395C22.9423 23.1684 23.15 22.7176 23.15 22.3085C23.15 21.205 22.5874 20.088 21.4786 19.2259C20.3648 18.3598 18.8177 17.85 17.1728 17.85H10.8287C9.18338 17.85 7.63593 18.3599 6.52184 19.2262C5.41287 20.0885 4.85016 21.2055 4.85 22.3092L7.4602 24.15ZM7.4602 24.15C7.4601 24.15 7.46001 24.15 7.45991 24.15M7.4602 24.15H7.45991M7.45991 24.15C6.70819 24.1497 6.01785 23.9156 5.5356 23.5407M7.45991 24.15L5.5356 23.5407M5.5356 23.5407C5.0583 23.1695 4.8503 22.7186 4.85 22.3094L5.5356 23.5407Z" stroke="#595E66" stroke-width="1.7"/>
</svg>
