<svg width="28" height="28" viewBox="0 0 28 28" fill="none" xmlns="http://www.w3.org/2000/svg">
<path d="M12 9V9C12 10.1046 12.8954 11 14 11V11C15.1046 11 16 10.1046 16 9V9" stroke="#163A6C" stroke-linecap="round"/>
<path d="M8 9C8 5.68629 10.6863 3 14 3H20V9C20 12.3137 17.3137 15 14 15V15C10.6863 15 8 12.3137 8 9V9Z" fill="#163A6C"/>
<path d="M10 8H14" stroke="#A6A9B0" stroke-width="1.7" stroke-linecap="round"/>
<path d="M7.45998 25C6.54246 24.9997 5.66263 24.7161 5.01384 24.2117C4.36506 23.7072 4.0004 23.0231 4 22.3097C4 20.9015 4.71945 19.5509 6.00009 18.5552C7.28072 17.5594 9.01763 17 10.8287 17H17.1728C18.9835 17 20.72 17.5593 22.0004 18.5548C23.2807 19.5504 24 20.9006 24 22.3085C24 23.0218 23.6357 23.706 22.9871 24.2104C22.3386 24.7149 21.4589 24.9985 20.5415 24.9988L7.45998 25Z" fill="#163A6C"/>
</svg>
