<svg width="18" height="18" viewBox="0 0 18 18" fill="none" xmlns="http://www.w3.org/2000/svg">
<path d="M13.2031 2.875C13.5531 2.875 13.8953 3.00485 14.1523 3.24512C14.4104 3.48641 14.5624 3.821 14.5625 4.17773V11.2383L14.5518 11.4023C14.5302 11.5654 14.4767 11.7228 14.3945 11.8662C14.285 12.0572 14.1284 12.2165 13.9424 12.332L13.9404 12.333L9.7373 14.9189L9.73633 14.918C9.51579 15.0536 9.26125 15.125 9.00293 15.125C8.74451 15.125 8.48916 15.0546 8.26855 14.9189L4.06543 12.333V12.332C3.87825 12.218 3.72026 12.0606 3.60938 11.8701C3.49777 11.6783 3.4376 11.461 3.4375 11.2383V4.17773C3.43755 3.82098 3.58959 3.4864 3.84766 3.24512C4.10471 3.00485 4.44693 2.875 4.79688 2.875H13.2031Z" stroke="#242424"/>
<path d="M8.36389 7.6886H8.87146C9.03406 7.6886 9.16809 7.66113 9.27356 7.6062C9.37903 7.54907 9.45703 7.46997 9.50757 7.3689C9.5603 7.26562 9.58667 7.14587 9.58667 7.00964C9.58667 6.8866 9.5625 6.77783 9.51416 6.68335C9.46802 6.58667 9.39661 6.51196 9.29993 6.45923C9.20325 6.4043 9.0813 6.37683 8.93408 6.37683C8.81763 6.37683 8.70996 6.3999 8.61108 6.44604C8.51221 6.49219 8.43311 6.55701 8.37378 6.6405C8.31445 6.724 8.28479 6.82507 8.28479 6.94373H7.33228C7.33228 6.68005 7.40259 6.45044 7.54321 6.25488C7.68604 6.05933 7.8772 5.90662 8.1167 5.79675C8.3562 5.68689 8.61987 5.63196 8.90771 5.63196C9.23291 5.63196 9.51746 5.68469 9.76135 5.79016C10.0052 5.89343 10.1953 6.04614 10.3315 6.24829C10.4678 6.45044 10.5359 6.70093 10.5359 6.99976C10.5359 7.15137 10.5007 7.29858 10.4304 7.44141C10.3601 7.58203 10.259 7.70947 10.1272 7.82373C9.99756 7.93579 9.83936 8.02588 9.65259 8.09399C9.46582 8.15991 9.25598 8.19287 9.02307 8.19287H8.36389V7.6886ZM8.36389 8.4104V7.91931H9.02307C9.28455 7.91931 9.51416 7.94897 9.71191 8.0083C9.90967 8.06763 10.0756 8.15332 10.2096 8.26538C10.3436 8.37524 10.4447 8.50598 10.5128 8.65759C10.5809 8.80701 10.615 8.9729 10.615 9.15527C10.615 9.37939 10.5721 9.57935 10.4865 9.75513C10.4008 9.92871 10.2799 10.0759 10.1239 10.1968C9.97009 10.3176 9.78992 10.4099 9.58337 10.4736C9.37683 10.5352 9.15161 10.5659 8.90771 10.5659C8.70557 10.5659 8.50671 10.5385 8.31116 10.4835C8.1178 10.4264 7.94202 10.3418 7.78381 10.2297C7.62781 10.1155 7.50256 9.97266 7.40808 9.80127C7.3158 9.62769 7.26965 9.42224 7.26965 9.18494H8.22217C8.22217 9.30798 8.25293 9.41785 8.31445 9.51453C8.37598 9.61121 8.46057 9.68701 8.56824 9.74194C8.6781 9.79688 8.80005 9.82434 8.93408 9.82434C9.08569 9.82434 9.21533 9.79688 9.323 9.74194C9.43286 9.68481 9.51636 9.60571 9.57349 9.50464C9.63281 9.40137 9.66248 9.28162 9.66248 9.14539C9.66248 8.9696 9.63062 8.82898 9.56689 8.72351C9.50317 8.61584 9.41199 8.53674 9.29333 8.48621C9.17468 8.43567 9.03406 8.4104 8.87146 8.4104H8.36389Z" fill="#242424"/>
</svg>
