<svg width="18" height="18" viewBox="0 0 18 18" fill="none" xmlns="http://www.w3.org/2000/svg">
<path d="M13.2031 2.875C13.5531 2.875 13.8953 3.00485 14.1523 3.24512C14.4104 3.48641 14.5624 3.821 14.5625 4.17773V11.2383L14.5518 11.4023C14.5302 11.5654 14.4767 11.7228 14.3945 11.8662C14.285 12.0572 14.1284 12.2165 13.9424 12.332L13.9404 12.333L9.7373 14.9189L9.73633 14.918C9.51579 15.0536 9.26125 15.125 9.00293 15.125C8.74451 15.125 8.48916 15.0546 8.26855 14.9189L4.06543 12.333V12.332C3.87825 12.218 3.72026 12.0606 3.60938 11.8701C3.49777 11.6783 3.4376 11.461 3.4375 11.2383V4.17773C3.43755 3.82098 3.58959 3.4864 3.84766 3.24512C4.10471 3.00485 4.44693 2.875 4.79688 2.875H13.2031Z" stroke="#242424"/>
<path d="M9.70532 5.69128V10.5H8.7561V6.78552L7.61572 7.14807V6.3999L9.60315 5.69128H9.70532Z" fill="#242424"/>
</svg>
